<?xml version="1.0" encoding="UTF-8"?>
<svg id="Layer_2" data-name="Layer 2" xmlns="http://www.w3.org/2000/svg" viewBox="0 0 40 55.75">
  <defs>
    <style>
      .cls-1 {
        fill: #333;
      }
    </style>
  </defs>
  <g id="Layer_1-2" data-name="Layer 1">
    <g id="help">
      <g id="help_qmark-curl">
        <path class="cls-1" d="M20.6,0C8.78,0,.8,6.87,0,17.77c-.04.58.44,1.08,1.02,1.08h8.73c.53,0,.98-.4,1.03-.92.44-5.55,3.53-8.29,9.48-8.29,5.02,0,8.61,3.05,8.61,7.41,0,2.8-1.09,4.28-5.6,7.82-6.41,4.97-7.29,6.39-7.35,14.12,0,.56.46,1.03,1.02,1.03h8.49c.54,0,1-.45,1.02-.99.09-3.24,1.06-5.11,3.43-6.91,4.43-3.29,5.18-4.03,6.77-5.84,2.26-2.8,3.34-5.84,3.34-9.63C40,6.67,32.22,0,20.6,0h0Z"/>
      </g>
      <g id="help_qmark-dot">
        <path class="cls-1" d="M25.55,44.75h-9.09c-.53,0-.95.43-.95.95v9.09c0,.53.43.95.95.95h9.09c.53,0,.95-.43.95-.95v-9.09c0-.53-.43-.95-.95-.95h0Z"/>
      </g>
    </g>
  </g>
</svg>