<?xml version="1.0" encoding="UTF-8"?>
<svg id="Logos" xmlns="http://www.w3.org/2000/svg" viewBox="0 0 3500 1750">
  <defs>
    <style>
      .cls-1 {
        fill: #d0d2d3;
      }

      .cls-2 {
        fill: #131415;
      }

      .cls-3 {
        fill: #f6f8f9;
      }
    </style>
  </defs>
  <g>
    <path class="cls-3" d="M598.23,967.12c0-41.91-18.34-81.51-50.32-108.66l-14.72-12.5,6.8-18.08c5.89-15.66,8.88-32.17,8.88-49.08,0-37.23-14.49-72.23-40.8-98.55-26.31-26.32-61.29-40.81-98.5-40.81s-72.19,14.49-98.5,40.81c-26.31,26.32-40.8,61.32-40.8,98.55,0,5.72.35,11.49,1.04,17.15l3.23,26.35-26.23,4.1c-33.15,5.18-63.56,22.11-85.64,47.68-10.93,12.67-19.47,26.98-25.37,42.54-6.11,16.1-9.2,33.09-9.2,50.5,0,38.05,14.81,73.82,41.7,100.72,26.89,26.9,62.64,41.72,100.67,41.72,27.72,0,54.59-7.97,77.68-23.05l15-9.79,15,9.79c23.1,15.08,49.96,23.05,77.68,23.05,38.03,0,73.78-14.82,100.67-41.72,26.89-26.9,41.7-62.68,41.7-100.72Z"/>
    <path class="cls-1" d="M565,836.54c6.87-18.27,10.63-38.06,10.63-58.74,0-92.12-74.65-166.8-166.74-166.8s-166.74,74.68-166.74,166.8c0,6.93.43,13.77,1.25,20.48-81.25,12.69-143.41,83-143.41,167.84,0,93.82,76.03,169.88,169.81,169.88,34.2,0,66.03-10.12,92.69-27.51,26.65,17.4,58.49,27.51,92.69,27.51,93.79,0,169.81-76.06,169.81-169.88,0-51.93-23.29-98.42-60-129.58ZM377.5,1085.51l-15-9.79-15,9.79c-23.1,15.08-49.96,23.05-77.68,23.05-38.03,0-73.78-14.82-100.67-41.72-26.89-26.9-41.7-62.68-41.7-100.72,0-17.41,3.1-34.4,9.2-50.5,5.9-15.56,14.44-29.87,25.37-42.54,22.07-25.57,52.49-42.5,85.64-47.68l26.23-4.1-3.23-26.35c-.69-5.66-1.04-11.43-1.04-17.15,0-37.23,14.49-72.23,40.8-98.55,26.31-26.32,61.29-40.81,98.5-40.81s72.19,14.49,98.5,40.81c26.31,26.32,40.8,61.32,40.8,98.55,0,16.91-2.99,33.42-8.88,49.08l-6.8,18.08,14.72,12.5c31.98,27.15,50.32,66.75,50.32,108.66,0,38.05-14.81,73.82-41.7,100.72-26.89,26.9-62.64,41.72-100.67,41.72-27.72,0-54.59-7.97-77.68-23.05Z"/>
  </g>
  <g>
    <g>
      <path class="cls-2" d="M954.08,680.69l-4.73,35.45h-167.49l5.03-35.45h167.2ZM892.78,680.69l-28.34,201.23h-44.7l28.34-201.23h44.7Z"/>
      <path class="cls-2" d="M1018.98,677.56l-7.02,50.8c-1.17,9.15-2.97,18.1-5.41,26.86-2.44,8.76-4.63,15.67-6.58,20.73l4.39,3.5-14.04,102.47h-43.28l28.66-204.36h43.28ZM1066.14,733.76c13.47,0,23.46,3.51,30,10.52,6.54,7.01,8.83,17.15,6.88,30.39l-15.22,107.25h-43.32l13.76-95.56c.78-6.23.39-10.47-1.17-12.71-1.56-2.24-4.68-3.36-9.37-3.36-7.03,0-14.15,2-21.37,5.99-7.22,4-16,10.08-26.35,18.26l-4.98-21.92c13.07-13.25,25.51-23.04,37.32-29.37,11.81-6.33,23.07-9.5,33.81-9.5Z"/>
      <path class="cls-2" d="M1210.45,734.03c17.76,0,31.47,1.9,41.13,5.7,9.66,3.8,16.15,9.45,19.47,16.95,3.32,7.5,4.1,16.71,2.34,27.62-1.37,8.96-4.35,16.03-8.93,21.19-4.59,5.16-10.88,9.01-18.88,11.54-8,2.53-18.15,4.29-30.44,5.26l-73.77,6.14,3.22-23.96,62.06-6.14c5.27-.58,9.61-1.41,13.03-2.48,3.41-1.07,6.1-2.82,8.05-5.26,1.95-2.43,3.22-5.89,3.81-10.37.78-4.68.48-8.18-.88-10.52-1.37-2.34-3.81-3.84-7.32-4.53-3.51-.68-8.2-.92-14.05-.73-6.05,0-11.12.58-15.22,1.75-4.1,1.17-7.51,3.26-10.25,6.28-2.74,3.02-4.98,7.31-6.73,12.86-1.76,5.55-3.42,12.71-4.98,21.48-1.95,12.67-2.25,22.21-.88,28.64,1.36,6.43,4.39,10.72,9.07,12.86,4.68,2.15,11.22,3.21,19.61,3.21,4.68,0,10.34-.15,16.98-.44,6.63-.29,13.42-.68,20.34-1.17,6.92-.48,13.22-1.02,18.88-1.61l2.93,26.88c-5.85,2.53-12.49,4.58-19.91,6.14-7.42,1.56-14.93,2.68-22.54,3.36-7.61.68-14.74,1.02-21.37,1.02-19.32,0-34.3-2.92-44.93-8.77-10.64-5.84-17.71-14.56-21.22-26.15-3.51-11.59-4.29-25.86-2.34-42.81,1.76-15,4.73-27.27,8.93-36.82,4.19-9.54,9.66-16.99,16.39-22.36,6.73-5.36,14.97-9.15,24.73-11.4,9.76-2.24,20.98-3.36,33.66-3.36Z"/>
      <path class="cls-2" d="M1456.05,677.48c21.27,0,38.2,3.17,50.79,9.5,12.59,6.33,21.03,17.15,25.32,32.44,4.29,15.3,4.49,36.48.59,63.56-2.93,20.85-6.83,37.94-11.71,51.29-4.88,13.35-11.12,23.67-18.73,30.98-7.61,7.31-17.17,12.42-28.69,15.34-11.52,2.92-25.27,4.38-41.27,4.38-14.05,0-27.71-.29-40.98-.88-13.27-.58-25.96-1.27-38.05-2.05l21.95-33.02c7.22.39,16.1.73,26.64,1.02,10.54.29,20.49.44,29.86.44,8.2,0,15.27-.92,21.22-2.78,5.95-1.85,11.02-5.31,15.22-10.37,4.19-5.06,7.71-12.22,10.54-21.48,2.83-9.25,5.22-21.38,7.17-36.38,1.95-13.83,2.93-25.18,2.93-34.04s-1.13-15.73-3.37-20.6c-2.25-4.87-5.9-8.28-10.98-10.23-5.08-1.95-11.71-2.92-19.9-2.92-6.05,0-12.4.05-19.03.15-6.64.1-13.13.15-19.47.15h-17.42l-16.98-31.56c7.03-.58,14.73-1.12,23.13-1.61,8.39-.48,16.98-.83,25.76-1.02,8.78-.19,17.27-.29,25.47-.29ZM1426.41,680.69l-28.34,201.23h-44.7l28.34-201.23h44.7Z"/>
      <path class="cls-2" d="M1604.55,738.03l.29,34.37,3.79,4.08-14.59,105.44h-43.18l20.13-143.88h33.55ZM1674.33,733.86l-9.27,39.62h-10.43c-6.76,0-14.05,1.5-21.87,4.48-7.82,2.99-17.63,7.47-29.4,13.45l-1.74-25.16c11.39-10.6,22.5-18.65,33.32-24.15,10.81-5.49,21.05-8.24,30.71-8.24h8.69Z"/>
      <path class="cls-2" d="M1761.35,734.03c17.76,0,31.47,1.9,41.13,5.7,9.66,3.8,16.15,9.45,19.47,16.95,3.32,7.5,4.1,16.71,2.34,27.62-1.37,8.96-4.35,16.03-8.93,21.19-4.59,5.16-10.88,9.01-18.88,11.54-8,2.53-18.15,4.29-30.44,5.26l-73.77,6.14,3.22-23.96,62.06-6.14c5.27-.58,9.61-1.41,13.03-2.48,3.41-1.07,6.1-2.82,8.05-5.26,1.95-2.43,3.22-5.89,3.81-10.37.78-4.68.48-8.18-.88-10.52-1.37-2.34-3.81-3.84-7.32-4.53-3.51-.68-8.2-.92-14.05-.73-6.05,0-11.12.58-15.22,1.75-4.1,1.17-7.51,3.26-10.25,6.28-2.74,3.02-4.98,7.31-6.73,12.86-1.76,5.55-3.42,12.71-4.98,21.48-1.95,12.67-2.25,22.21-.88,28.64,1.36,6.43,4.39,10.72,9.07,12.86,4.68,2.15,11.22,3.21,19.61,3.21,4.68,0,10.34-.15,16.98-.44,6.63-.29,13.42-.68,20.34-1.17,6.92-.48,13.22-1.02,18.88-1.61l2.93,26.88c-5.85,2.53-12.49,4.58-19.91,6.14-7.42,1.56-14.93,2.68-22.54,3.36-7.61.68-14.74,1.02-21.37,1.02-19.32,0-34.3-2.92-44.93-8.77-10.64-5.84-17.71-14.56-21.22-26.15-3.51-11.59-4.29-25.86-2.34-42.81,1.76-15,4.73-27.27,8.93-36.82,4.19-9.54,9.66-16.99,16.39-22.36,6.73-5.36,14.97-9.15,24.73-11.4,9.76-2.24,20.98-3.36,33.66-3.36Z"/>
      <path class="cls-2" d="M1927.62,734.03c5.07,0,10.78.25,17.12.73,6.34.49,12.78,1.12,19.32,1.9,6.54.78,12.68,1.66,18.44,2.63,5.75.98,10.49,1.95,14.2,2.92l-29.56,23.38c-7.81-.39-14.93-.63-21.37-.73-6.44-.1-12.49-.15-18.15-.15-6.44,0-11.91.49-16.39,1.46-4.49.98-8.2,2.88-11.12,5.7-2.93,2.83-5.37,7.06-7.32,12.71-1.95,5.65-3.61,13.25-4.98,22.79-1.76,12.08-2.69,21.29-2.78,27.62-.1,6.33,1.02,10.67,3.37,13,2.34,2.34,6.05,3.41,11.12,3.21,5.27-.19,10.78-1.95,16.54-5.26,5.75-3.31,11.46-7.84,17.12-13.59,5.66-5.74,11.12-12.22,16.39-19.43l7.61,14.03c-3.91,11.5-9.42,21.58-16.54,30.25-7.13,8.67-15.47,15.44-25.03,20.31-9.56,4.87-20.2,7.6-31.91,8.18-12.69.58-22.39-1.95-29.13-7.6-6.73-5.65-10.88-14.41-12.44-26.3-1.56-11.88-.98-26.78,1.76-44.71,2.53-16.56,6.1-29.76,10.68-39.6,4.58-9.84,10.39-17.14,17.42-21.92,7.03-4.77,15.17-7.89,24.44-9.35,9.27-1.46,19.66-2.19,31.18-2.19ZM1953.96,739.31l42.74,2.63-19.61,139.98h-33.66l.59-32.73-5.27-3.51,15.22-106.37Z"/>
      <path class="cls-2" d="M2066.05,738.03l.29,33.2,3.79,4.08-14.88,106.6h-42.89l20.13-143.88h33.55ZM2123.45,733.76c13.47,0,23.27,3.61,29.42,10.81,6.15,7.21,8.34,17.24,6.59,30.1l-15.22,107.25h-41.57l13.47-95.56c.78-5.84.29-9.98-1.46-12.42-1.76-2.43-5.08-3.65-9.95-3.65-3.51,0-7.22.78-11.12,2.34-3.91,1.56-8.3,4.05-13.17,7.45-4.88,3.41-10.83,8.14-17.86,14.17l-5.27-21.62c12.1-13.44,23.32-23.28,33.66-29.51,10.34-6.23,21.17-9.35,32.49-9.35ZM2213.61,733.76c13.66,0,23.61,3.65,29.86,10.96,6.24,7.31,8.39,17.29,6.44,29.95l-14.93,107.25h-43.03l13.47-95.56c.78-6.23.15-10.47-1.9-12.71-2.05-2.24-5.22-3.36-9.51-3.36-3.32,0-6.88.73-10.68,2.19-3.81,1.46-8.1,3.9-12.88,7.31-4.78,3.41-10.49,8.14-17.12,14.17l-5.56-21.33c12.1-13.63,23.27-23.52,33.52-29.66,10.25-6.14,21.03-9.2,32.35-9.2Z"/>
      <path class="cls-2" d="M2403.89,679.8c15.97,0,32.04.15,48.2.44,16.16.29,30.87,1.31,44.11,3.06l-5.26,31.79h-71.28c-6.24,0-10.81,1.12-13.73,3.35-2.92,2.24-4.77,6.37-5.55,12.39l-21.33,151.07h-44.7l22.5-161.86c1.94-12.64,7.11-22.5,15.48-29.6,8.37-7.1,18.89-10.65,31.55-10.65ZM2355.02,765.14h118.53l-4.14,31.28h-118.83l4.43-31.28Z"/>
      <path class="cls-2" d="M2578.92,734.03c5.07,0,10.78.25,17.12.73,6.34.49,12.78,1.12,19.32,1.9,6.54.78,12.68,1.66,18.44,2.63,5.75.98,10.49,1.95,14.2,2.92l-29.57,23.38c-7.81-.39-14.93-.63-21.37-.73-6.44-.1-12.49-.15-18.15-.15-6.44,0-11.91.49-16.39,1.46-4.49.98-8.2,2.88-11.12,5.7-2.93,2.83-5.37,7.06-7.32,12.71-1.95,5.65-3.61,13.25-4.98,22.79-1.76,12.08-2.68,21.29-2.78,27.62-.1,6.33,1.02,10.67,3.37,13,2.34,2.34,6.05,3.41,11.12,3.21,5.27-.19,10.78-1.95,16.54-5.26,5.75-3.31,11.46-7.84,17.12-13.59,5.66-5.74,11.12-12.22,16.39-19.43l7.61,14.03c-3.91,11.5-9.42,21.58-16.54,30.25-7.13,8.67-15.47,15.44-25.03,20.31-9.56,4.87-20.2,7.6-31.91,8.18-12.69.58-22.39-1.95-29.13-7.6-6.73-5.65-10.88-14.41-12.44-26.3-1.56-11.88-.98-26.78,1.76-44.71,2.53-16.56,6.1-29.76,10.69-39.6,4.58-9.84,10.39-17.14,17.42-21.92,7.03-4.77,15.17-7.89,24.44-9.35,9.27-1.46,19.66-2.19,31.17-2.19ZM2605.26,739.31l42.74,2.63-19.61,139.98h-33.66l.59-32.73-5.27-3.51,15.22-106.37Z"/>
      <path class="cls-2" d="M2746.94,734.03c9.17,0,18.93.73,29.27,2.19,10.34,1.46,19.42,3.85,27.22,7.16l-6.15,26.59c-8.59-.39-16.79-.63-24.59-.73-7.81-.1-14.44-.15-19.91-.15-8.59,0-15.62,1.17-21.08,3.51-5.47,2.34-9.66,6.48-12.59,12.42-2.93,5.94-5.08,14.27-6.44,24.99-1.56,11.3-1.76,19.87-.58,25.72,1.17,5.84,4.05,9.84,8.64,11.98,4.58,2.15,11.07,3.21,19.47,3.21,3.51,0,7.76-.1,12.73-.29,4.98-.19,10.39-.44,16.25-.73,5.86-.29,11.51-.83,16.98-1.61l2.93,28.05c-8.39,3.31-17.61,5.7-27.66,7.16-10.05,1.46-19.66,2.19-28.83,2.19-16.98,0-30.74-2.58-41.27-7.74-10.54-5.16-17.81-13.44-21.81-24.84-4-11.4-4.73-26.35-2.2-44.86,2.73-17.92,6.98-32.29,12.73-43.1,5.75-10.81,14.05-18.7,24.88-23.67,10.83-4.97,24.83-7.45,42.01-7.45Z"/>
      <path class="cls-2" d="M2928.92,738.03l-4.07,28.15h-108.15l3.49-26.7,27.91-1.45h80.82ZM2894.66,698.41l-19.83,138.55c-.78,5.24-.29,8.83,1.46,10.77,1.75,1.94,5.44,2.91,11.08,2.91h19.53l2.04,29.4c-3.69,1.16-8.12,2.18-13.27,3.06-5.15.87-10.16,1.5-15.02,1.89-4.86.39-8.85.58-11.95.58-13.41,0-23.57-3.64-30.47-10.91-6.9-7.28-9.38-17.12-7.44-29.54l21.28-146.7h42.57Z"/>
      <path class="cls-2" d="M3019.17,734.03c17.76,0,32,2.58,42.74,7.74,10.73,5.16,18,13.4,21.81,24.69,3.81,11.3,4.34,26.5,1.61,45.59-2.54,18.12-6.88,32.58-13.03,43.4-6.15,10.81-14.78,18.56-25.91,23.23-11.12,4.68-25.57,7.01-43.32,7.01s-31.76-2.53-42.59-7.6c-10.83-5.06-18.25-13.25-22.25-24.55-4-11.3-4.73-26.3-2.2-45,2.73-18.31,7.12-32.88,13.17-43.69,6.05-10.81,14.78-18.65,26.2-23.52,11.42-4.87,26-7.31,43.76-7.31ZM3018.58,765.59c-7.81,0-14.1,1.27-18.88,3.8-4.78,2.53-8.59,7.11-11.42,13.73-2.83,6.63-5.12,16.27-6.88,28.93-1.56,11.1-2,19.78-1.32,26.01.68,6.24,2.97,10.52,6.88,12.86,3.9,2.34,9.66,3.51,17.27,3.51s14.05-1.31,18.73-3.94c4.68-2.63,8.39-7.26,11.12-13.88,2.73-6.62,4.98-15.97,6.73-28.05,1.56-11.49,2-20.31,1.32-26.45-.69-6.14-2.93-10.42-6.73-12.86-3.81-2.43-9.42-3.65-16.83-3.65Z"/>
      <path class="cls-2" d="M3158.21,738.03l.29,34.37,3.79,4.08-14.59,105.44h-43.18l20.13-143.88h33.55ZM3228.96,733.86l-9.27,39.62h-10.43c-6.76,0-14.05,1.5-21.87,4.48-7.82,2.99-17.63,7.47-29.4,13.45l-1.74-25.16c11.39-10.6,22.5-18.65,33.31-24.15,10.81-5.49,21.05-8.24,30.71-8.24h8.69Z"/>
      <path class="cls-2" d="M3281.17,738.03l12.26,110.78c.58,3.31,2.53,4.96,5.84,4.96h16.37l-11.63,28.15h-29.67c-4.48,0-8.27-1.36-11.38-4.08-3.11-2.72-5.06-6.12-5.83-10.19l-22.76-129.61h46.79ZM3392.09,738.03c-1.56,9.55-3.66,19.29-6.29,29.22-2.63,9.94-5.61,19.77-8.93,29.51-3.32,9.74-6.78,19.04-10.39,27.91-3.61,8.87-7.22,17.09-10.83,24.69-3.61,7.6-7.17,14.32-10.68,20.16-9.76,16.75-19.91,30.39-30.44,40.91-10.54,10.52-21.86,18.31-33.96,23.38-12.1,5.06-25.37,7.99-39.81,8.77l-4.39-25.42c7.22-2.15,14.05-4.53,20.49-7.16,6.44-2.63,12.63-6.09,18.59-10.37,5.95-4.29,11.75-10.08,17.42-17.39,5.66-7.31,11.32-16.7,16.98-28.2,5.86-11.49,10.98-22.98,15.37-34.48,4.39-11.49,8.29-23.86,11.71-37.11,3.41-13.25,6.49-28.05,9.22-44.42h45.96Z"/>
    </g>
    <g>
      <path class="cls-2" d="M781.86,1077.96v-104.28h41.16c18.18,0,28.09,11.4,28.09,29.25s-9.91,29.4-28.09,29.4h-32.03v45.62h-9.14ZM790.99,1024.52h32.33c12.09,0,18.58-7.55,18.58-17.96v-7.24c0-10.26-6.5-17.81-18.58-17.81h-32.33v43.01Z"/>
      <path class="cls-2" d="M866.68,1026.38c0-35.38,16.21-54.12,42.94-54.12s42.79,18.74,42.79,54.12-16.21,54.12-42.79,54.12-42.94-18.74-42.94-54.12ZM942.41,1032.99v-13.2c0-24.91-13.22-39.47-33.21-39.47s-33.36,14.56-33.36,39.47v13.2c0,24.91,13.22,39.47,33.36,39.47s33.21-14.56,33.21-39.47Z"/>
      <path class="cls-2" d="M991.54,1077.96l-26.33-104.28h9.39l22.44,93.85h.45l24.85-93.85h10.99l24.55,93.85h.45l23.19-93.85h9.09l-27.23,104.28h-10.76l-24.87-93.85h-.3l-25.17,93.85h-10.76Z"/>
      <path class="cls-2" d="M1109.49,1079.27v-105.58h61.35v9.12h-52.21v39.1h49.6v7.82h-49.6v41.71h52.21v7.82h-61.35Z"/>
      <path class="cls-2" d="M1204.78,1077.96h-9.14v-104.28h40.99c17.8,0,27.98,10.76,27.98,28.98,0,15.99-8.08,26.59-23.04,28.53l25.73,46.76h-10.48l-24.69-45.62h-27.35v45.62ZM1237.1,1024.52c12.08,0,18.58-7.55,18.58-17.96v-7.24c0-10.26-6.5-17.81-18.58-17.81h-32.33v43.01h32.33Z"/>
      <path class="cls-2" d="M1290.93,1077.96v-104.28h60.04v7.82h-50.91v40.41h46.99v7.82h-46.99v48.23h-9.14Z"/>
      <path class="cls-2" d="M1380.99,973.69v64.61c0,23.24,6.66,33.73,27.41,33.73s27.41-10.49,27.41-33.73v-64.61h9.14v62.66c0,30.73-9.53,43.78-36.19,43.78s-35.6-13.04-35.6-43.78v-62.66h7.83Z"/>
      <path class="cls-2" d="M1473.67,1079.27v-105.58h9.14v97.76h45.69v7.82h-54.82Z"/>
      <path class="cls-2" d="M1583.31,973.69h33.21c26.78,0,42.19,17.48,42.19,52.14s-15.41,52.14-42.19,52.14h-33.21v-104.28ZM1615.78,1070.14c20.71,0,32.8-14.22,32.8-37.43v-13.77c0-23.21-12.09-37.43-32.8-37.43h-24.64v88.63h24.64Z"/>
      <path class="cls-2" d="M1677.3,1079.27v-7.82h15.66v-89.94h-15.66v-7.82h40.46v7.82h-15.66v89.94h14.36v7.82h-39.16Z"/>
      <path class="cls-2" d="M1809.13,1062.32h0c-3.78,10.77-14.67,18.06-31,18.06-26.01,0-42.64-18.97-42.64-54.77s16.48-54.77,43.25-54.77c17.99,0,30.54,9.1,36.89,22.61l-7.41,4.4c-5.14-11.68-15.57-18.81-29.48-18.81-20.41,0-33.57,14.87-33.57,40.06v12.9c0,25.34,13,40.21,34.32,40.21,16.03,0,29.64-8.5,29.64-25.79v-12.75h-24.8v-6.52h32.63v50.83h-7.83v-15.64Z"/>
      <path class="cls-2" d="M1837.85,1079.27v-7.82h15.66v-89.94h-14.36v-7.82h39.16v7.82h-15.66v89.94h15.66v7.82h-40.46Z"/>
      <path class="cls-2" d="M1934.44,981.51v96.46h-9.14v-96.46h-35.24v-7.82h79.62v7.82h-35.24Z"/>
      <path class="cls-2" d="M2042.98,1077.96l-10.97-31.28h-42.88l-10.97,31.28h-10.15l36.95-104.28h11.52l37.1,104.28h-10.6ZM2010.8,982.81h-.6l-19.77,56.05h40.13l-19.77-56.05Z"/>
      <path class="cls-2" d="M2072.8,1079.27v-105.58h9.14v97.76h45.69v7.82h-54.82Z"/>
      <path class="cls-2" d="M2173.09,1062.66l6.76-5.55c7.36,9.74,16.21,15.44,29.88,15.44,16.21,0,25.22-8.1,25.22-21.89,0-12.89-7.81-17.84-21.17-20.69l-9.31-1.95c-19.82-4.05-28.52-13.49-28.52-28.03,0-18.29,13.51-27.73,33.63-27.73,15.61,0,26.27,6,33.18,16.04l-6.76,4.95c-5.85-8.25-14.26-13.04-26.87-13.04-15.01,0-24.32,6.6-24.32,19.49s8.41,17.24,21.47,19.94l9.31,1.95c20.87,4.5,28.22,14.24,28.22,28.63,0,19.04-13.06,30.28-34.38,30.28-17.11,0-28.22-7.05-36.33-17.84Z"/>
      <path class="cls-2" d="M2261.51,1026.38c0-35.38,16.21-54.12,42.94-54.12s42.79,18.74,42.79,54.12-16.21,54.12-42.79,54.12-42.94-18.74-42.94-54.12ZM2337.78,1032.99v-13.2c0-24.91-13.22-39.47-33.21-39.47s-33.36,14.56-33.36,39.47v13.2c0,24.91,13.22,39.47,33.36,39.47s33.21-14.56,33.21-39.47Z"/>
      <path class="cls-2" d="M2371.72,1079.27v-105.58h9.14v97.76h45.69v7.82h-54.82Z"/>
      <path class="cls-2" d="M2448.73,973.69v64.61c0,23.24,6.66,33.73,27.41,33.73s27.41-10.49,27.41-33.73v-64.61h9.14v62.66c0,30.73-9.53,43.78-36.19,43.78s-35.6-13.04-35.6-43.78v-62.66h7.83Z"/>
      <path class="cls-2" d="M2574.04,981.51v96.46h-9.14v-96.46h-35.24v-7.82h79.62v7.82h-35.24Z"/>
      <path class="cls-2" d="M2621.03,1079.27v-7.82h15.66v-89.94h-15.66v-7.82h40.46v7.82h-15.66v89.94h14.36v7.82h-39.16Z"/>
      <path class="cls-2" d="M2679.62,1026.38c0-35.38,16.21-54.12,42.94-54.12s42.79,18.74,42.79,54.12-16.21,54.12-42.79,54.12-42.94-18.74-42.94-54.12ZM2755.48,1032.99v-13.2c0-24.91-13.22-39.47-33.21-39.47s-33.36,14.56-33.36,39.47v13.2c0,24.91,13.22,39.47,33.36,39.47s33.21-14.56,33.21-39.47Z"/>
      <path class="cls-2" d="M2799,986.72h-.45v91.24h-9.14v-104.28h8.28l57.82,92.54h.47v-92.54h9.14v105.58h-11.22l-54.9-92.54Z"/>
      <path class="cls-2" d="M2886.34,1062.66l6.76-5.55c7.36,9.74,16.21,15.44,29.88,15.44,16.21,0,25.22-8.1,25.22-21.89,0-12.89-7.81-17.84-21.17-20.69l-9.31-1.95c-19.82-4.05-28.52-13.49-28.52-28.03,0-18.29,13.51-27.73,33.63-27.73,15.61,0,26.27,6,33.18,16.04l-6.76,4.95c-5.85-8.25-14.26-13.04-26.87-13.04-15.01,0-24.32,6.6-24.32,19.49s8.41,17.24,21.47,19.94l9.31,1.95c20.87,4.5,28.22,14.24,28.22,28.63,0,19.04-13.06,30.28-34.38,30.28-17.11,0-28.22-7.05-36.33-17.84Z"/>
    </g>
  </g>
</svg>