<?xml version="1.0" encoding="UTF-8"?>
<svg id="Logos" xmlns="http://www.w3.org/2000/svg" viewBox="0 0 3500 1750">
  <defs>
    <style>
      .cls-1 {
        fill: #d0d2d3;
      }

      .cls-2 {
        fill: #131415;
      }

      .cls-3 {
        fill: #f6f8f9;
      }
    </style>
  </defs>
  <g>
    <path class="cls-3" d="M669.4,980.5c0-47.89-20.96-93.16-57.5-124.18l-16.83-14.29,7.77-20.66c6.73-17.9,10.15-36.77,10.15-56.09,0-42.55-16.56-82.54-46.63-112.63-30.07-30.08-70.04-46.65-112.57-46.65s-82.5,16.57-112.57,46.65c-30.07,30.08-46.63,70.08-46.63,112.63,0,6.53.4,13.13,1.19,19.6l3.69,30.11-29.97,4.68c-37.89,5.92-72.64,25.27-97.87,54.49-12.5,14.48-22.25,30.83-28.99,48.62-6.98,18.4-10.51,37.82-10.51,57.72,0,43.48,16.93,84.37,47.66,115.11,30.73,30.74,71.59,47.68,115.05,47.68,31.68,0,62.38-9.11,88.78-26.34l17.14-11.19,17.14,11.19c26.4,17.23,57.1,26.34,88.78,26.34,43.46,0,84.32-16.93,115.05-47.68,30.74-30.75,47.66-71.63,47.66-115.11Z"/>
    <path class="cls-1" d="M631.43,831.26c7.85-20.88,12.15-43.5,12.15-67.13,0-105.28-85.32-190.63-190.56-190.63s-190.56,85.35-190.56,190.63c0,7.93.49,15.74,1.43,23.41-92.85,14.5-163.9,94.86-163.9,191.81,0,107.23,86.89,194.15,194.07,194.15,39.08,0,75.47-11.56,105.93-31.45,30.46,19.89,66.84,31.45,105.93,31.45,107.18,0,194.07-86.92,194.07-194.15,0-59.35-26.62-112.48-68.57-148.09ZM417.14,1115.8l-17.14-11.19-17.14,11.19c-26.4,17.23-57.1,26.34-88.78,26.34-43.46,0-84.32-16.93-115.05-47.68-30.74-30.75-47.66-71.63-47.66-115.11,0-19.9,3.54-39.31,10.51-57.72,6.74-17.78,16.5-34.14,28.99-48.62,25.23-29.22,59.98-48.58,97.87-54.49l29.97-4.68-3.69-30.11c-.79-6.47-1.19-13.06-1.19-19.6,0-42.55,16.56-82.54,46.63-112.63,30.07-30.08,70.04-46.65,112.57-46.65s82.5,16.57,112.57,46.65c30.07,30.08,46.63,70.08,46.63,112.63,0,19.32-3.41,38.19-10.15,56.09l-7.77,20.66,16.83,14.29c36.54,31.03,57.5,76.29,57.5,124.18,0,43.48-16.93,84.37-47.66,115.11-30.73,30.74-71.59,47.68-115.05,47.68-31.68,0-62.38-9.11-88.78-26.34Z"/>
  </g>
  <g>
    <g>
      <path class="cls-2" d="M1024.66,685.79l-4.61,34.54h-163.19l4.9-34.54h162.9ZM964.93,685.79l-27.61,196.06h-43.55l27.61-196.06h43.55Z"/>
      <path class="cls-2" d="M1087.88,682.74l-6.84,49.49c-1.14,8.91-2.9,17.63-5.27,26.17-2.38,8.53-4.51,15.27-6.41,20.19l4.27,3.41-13.68,99.84h-42.17l27.92-199.11h42.17ZM1133.83,737.5c13.12,0,22.86,3.42,29.23,10.25,6.37,6.83,8.6,16.7,6.7,29.61l-14.83,104.49h-42.21l13.4-93.1c.76-6.07.38-10.2-1.14-12.39-1.52-2.18-4.56-3.27-9.13-3.27-6.85,0-13.79,1.95-20.82,5.84-7.04,3.89-15.59,9.82-25.67,17.79l-4.85-21.35c12.74-12.91,24.86-22.44,36.36-28.61,11.5-6.17,22.48-9.25,32.94-9.25Z"/>
      <path class="cls-2" d="M1274.44,737.76c17.3,0,30.66,1.85,40.07,5.55,9.41,3.7,15.73,9.21,18.97,16.51,3.23,7.31,3.99,16.28,2.28,26.91-1.33,8.73-4.23,15.61-8.7,20.64-4.47,5.03-10.6,8.78-18.39,11.25-7.8,2.47-17.68,4.18-29.66,5.12l-71.87,5.98,3.14-23.35,60.46-5.98c5.13-.57,9.36-1.37,12.69-2.42,3.32-1.04,5.94-2.75,7.84-5.12,1.9-2.37,3.14-5.74,3.71-10.11.76-4.56.47-7.97-.86-10.25-1.33-2.28-3.71-3.75-7.13-4.41-3.42-.66-7.99-.9-13.69-.71-5.9,0-10.84.57-14.83,1.71-3.99,1.14-7.32,3.18-9.98,6.12-2.66,2.95-4.85,7.12-6.56,12.53-1.71,5.41-3.33,12.38-4.85,20.93-1.9,12.34-2.19,21.64-.86,27.9,1.33,6.26,4.28,10.44,8.84,12.53,4.56,2.09,10.93,3.13,19.11,3.13,4.56,0,10.08-.14,16.54-.43,6.46-.28,13.07-.66,19.82-1.14,6.75-.47,12.88-1,18.39-1.57l2.85,26.19c-5.7,2.47-12.17,4.46-19.39,5.98-7.23,1.52-14.55,2.61-21.96,3.27-7.41.66-14.36,1-20.82,1-18.82,0-33.42-2.85-43.78-8.54-10.37-5.69-17.25-14.19-20.68-25.48-3.42-11.29-4.18-25.2-2.28-41.71,1.71-14.61,4.61-26.57,8.7-35.87,4.09-9.3,9.41-16.56,15.97-21.78,6.56-5.22,14.59-8.92,24.1-11.1,9.51-2.18,20.44-3.27,32.8-3.27Z"/>
      <path class="cls-2" d="M1513.72,682.67c20.72,0,37.22,3.09,49.48,9.25,12.26,6.17,20.49,16.7,24.67,31.6,4.18,14.9,4.37,35.54.57,61.92-2.85,20.31-6.66,36.97-11.41,49.97-4.75,13-10.84,23.06-18.25,30.18-7.41,7.12-16.73,12.1-27.95,14.95-11.22,2.85-24.63,4.27-40.21,4.27-13.69,0-27-.28-39.93-.85-12.93-.57-25.29-1.24-37.08-1.99l21.39-32.17c7.03.38,15.69.71,25.95,1,10.27.28,19.96.43,29.09.43,7.99,0,14.88-.9,20.68-2.7,5.8-1.8,10.74-5.17,14.83-10.11,4.09-4.93,7.51-11.91,10.27-20.93,2.75-9.01,5.08-20.83,6.99-35.45,1.9-13.47,2.85-24.53,2.85-33.17s-1.1-15.33-3.28-20.07c-2.19-4.74-5.75-8.07-10.69-9.96-4.95-1.9-11.41-2.85-19.39-2.85-5.9,0-12.08.05-18.54.14-6.47.1-12.79.14-18.97.14h-16.97l-16.54-30.75c6.85-.57,14.35-1.09,22.53-1.57,8.17-.47,16.54-.8,25.1-1,8.56-.19,16.83-.28,24.81-.28ZM1484.84,685.79l-27.61,196.06h-43.55l27.61-196.06h43.55Z"/>
      <path class="cls-2" d="M1658.4,741.66l.28,33.49,3.7,3.97-14.21,102.73h-42.07l19.61-140.19h32.69ZM1726.39,737.6l-9.03,38.6h-10.16c-6.59,0-13.69,1.46-21.31,4.37-7.62,2.91-17.17,7.28-28.65,13.1l-1.69-24.51c11.1-10.33,21.92-18.17,32.46-23.53,10.54-5.35,20.51-8.03,29.92-8.03h8.47Z"/>
      <path class="cls-2" d="M1811.18,737.76c17.3,0,30.66,1.85,40.07,5.55,9.41,3.7,15.73,9.21,18.97,16.51,3.23,7.31,3.99,16.28,2.28,26.91-1.33,8.73-4.23,15.61-8.7,20.64-4.47,5.03-10.6,8.78-18.39,11.25-7.8,2.47-17.68,4.18-29.66,5.12l-71.87,5.98,3.14-23.35,60.46-5.98c5.13-.57,9.36-1.37,12.69-2.42,3.32-1.04,5.94-2.75,7.84-5.12,1.9-2.37,3.14-5.74,3.71-10.11.76-4.56.47-7.97-.86-10.25-1.33-2.28-3.71-3.75-7.13-4.41-3.42-.66-7.99-.9-13.69-.71-5.9,0-10.84.57-14.83,1.71-3.99,1.14-7.32,3.18-9.98,6.12-2.66,2.95-4.85,7.12-6.56,12.53-1.71,5.41-3.33,12.38-4.85,20.93-1.9,12.34-2.19,21.64-.86,27.9,1.33,6.26,4.28,10.44,8.84,12.53,4.56,2.09,10.93,3.13,19.11,3.13,4.56,0,10.08-.14,16.54-.43,6.46-.28,13.07-.66,19.82-1.14,6.75-.47,12.88-1,18.39-1.57l2.85,26.19c-5.7,2.47-12.17,4.46-19.39,5.98-7.23,1.52-14.55,2.61-21.96,3.27-7.41.66-14.36,1-20.82,1-18.82,0-33.42-2.85-43.78-8.54-10.37-5.69-17.25-14.19-20.68-25.48-3.42-11.29-4.18-25.2-2.28-41.71,1.71-14.61,4.61-26.57,8.7-35.87,4.09-9.3,9.41-16.56,15.97-21.78,6.56-5.22,14.59-8.92,24.1-11.1,9.51-2.18,20.44-3.27,32.8-3.27Z"/>
      <path class="cls-2" d="M1973.17,737.76c4.94,0,10.5.24,16.68.71,6.18.48,12.45,1.09,18.82,1.85,6.37.76,12.36,1.61,17.97,2.56,5.61.95,10.22,1.9,13.83,2.85l-28.8,22.78c-7.61-.38-14.54-.61-20.82-.71-6.27-.09-12.17-.14-17.68-.14-6.27,0-11.6.48-15.97,1.42-4.38.95-7.99,2.8-10.84,5.55-2.85,2.75-5.23,6.88-7.13,12.39-1.9,5.51-3.52,12.91-4.85,22.21-1.71,11.77-2.62,20.74-2.71,26.91-.1,6.17,1,10.39,3.28,12.67,2.28,2.28,5.89,3.32,10.84,3.13,5.13-.19,10.5-1.9,16.11-5.12,5.61-3.23,11.17-7.64,16.68-13.24,5.51-5.6,10.84-11.91,15.97-18.93l7.41,13.67c-3.81,11.2-9.18,21.02-16.11,29.47-6.94,8.45-15.07,15.05-24.38,19.79-9.32,4.74-19.68,7.4-31.09,7.97-12.36.57-21.82-1.9-28.38-7.4-6.56-5.5-10.6-14.04-12.12-25.62-1.52-11.58-.95-26.1,1.71-43.56,2.47-16.13,5.94-28.99,10.41-38.58,4.47-9.58,10.12-16.7,16.97-21.35,6.85-4.65,14.78-7.69,23.81-9.11,9.03-1.42,19.15-2.14,30.37-2.14ZM1998.84,742.91l41.64,2.56-19.11,136.38h-32.8l.57-31.89-5.13-3.42,14.83-103.64Z"/>
      <path class="cls-2" d="M2108.04,741.66l.28,32.35,3.7,3.97-14.5,103.86h-41.79l19.61-140.19h32.69ZM2163.96,737.5c13.12,0,22.67,3.51,28.66,10.53,5.99,7.02,8.13,16.8,6.42,29.33l-14.83,104.49h-40.5l13.12-93.1c.76-5.69.28-9.72-1.43-12.1-1.71-2.37-4.95-3.56-9.7-3.56-3.42,0-7.04.76-10.84,2.28-3.81,1.52-8.08,3.94-12.83,7.26-4.75,3.32-10.55,7.93-17.4,13.81l-5.13-21.07c11.79-13.1,22.72-22.68,32.8-28.76,10.08-6.07,20.63-9.11,31.66-9.11ZM2251.8,737.5c13.31,0,23,3.56,29.09,10.68,6.08,7.12,8.17,16.85,6.27,29.18l-14.54,104.49h-41.92l13.12-93.1c.76-6.07.14-10.2-1.85-12.39-2-2.18-5.09-3.27-9.27-3.27-3.24,0-6.7.71-10.41,2.14-3.71,1.42-7.89,3.8-12.55,7.12-4.66,3.32-10.22,7.93-16.68,13.81l-5.42-20.78c11.79-13.28,22.67-22.92,32.65-28.9,9.98-5.98,20.49-8.97,31.52-8.97Z"/>
      <path class="cls-2" d="M2437.2,684.93c15.56,0,31.21.14,46.97.43,15.75.28,30.07,1.28,42.98,2.98l-5.12,30.97h-69.45c-6.08,0-10.53,1.09-13.38,3.27-2.85,2.18-4.65,6.21-5.41,12.08l-20.78,147.19h-43.55l21.92-157.7c1.89-12.31,6.92-21.92,15.09-28.84,8.16-6.91,18.4-10.37,30.74-10.37ZM2389.58,768.07h115.49l-4.03,30.48h-115.77l4.32-30.48Z"/>
      <path class="cls-2" d="M2607.73,737.76c4.94,0,10.5.24,16.68.71,6.18.48,12.45,1.09,18.82,1.85,6.37.76,12.36,1.61,17.97,2.56,5.61.95,10.22,1.9,13.83,2.85l-28.81,22.78c-7.61-.38-14.54-.61-20.82-.71-6.27-.09-12.17-.14-17.68-.14-6.27,0-11.6.48-15.97,1.42-4.38.95-7.99,2.8-10.84,5.55-2.85,2.75-5.23,6.88-7.13,12.39-1.9,5.51-3.52,12.91-4.85,22.21-1.71,11.77-2.62,20.74-2.71,26.91-.1,6.17,1,10.39,3.28,12.67,2.28,2.28,5.89,3.32,10.84,3.13,5.13-.19,10.5-1.9,16.11-5.12,5.61-3.23,11.17-7.64,16.68-13.24,5.51-5.6,10.84-11.91,15.97-18.93l7.42,13.67c-3.81,11.2-9.18,21.02-16.11,29.47-6.94,8.45-15.07,15.05-24.38,19.79-9.32,4.74-19.68,7.4-31.09,7.97-12.36.57-21.82-1.9-28.38-7.4-6.56-5.5-10.6-14.04-12.12-25.62-1.52-11.58-.95-26.1,1.71-43.56,2.47-16.13,5.94-28.99,10.41-38.58,4.47-9.58,10.12-16.7,16.97-21.35,6.85-4.65,14.78-7.69,23.82-9.11,9.03-1.42,19.15-2.14,30.37-2.14ZM2633.39,742.91l41.64,2.56-19.11,136.38h-32.8l.57-31.89-5.13-3.42,14.83-103.64Z"/>
      <path class="cls-2" d="M2771.43,737.76c8.93,0,18.44.71,28.52,2.14,10.08,1.42,18.92,3.75,26.52,6.98l-5.99,25.91c-8.37-.38-16.35-.61-23.96-.71-7.61-.09-14.07-.14-19.39-.14-8.37,0-15.21,1.14-20.53,3.42-5.32,2.28-9.41,6.31-12.26,12.1-2.85,5.79-4.95,13.91-6.27,24.34-1.52,11.01-1.71,19.36-.57,25.05,1.14,5.69,3.94,9.59,8.41,11.67,4.47,2.09,10.79,3.13,18.97,3.13,3.42,0,7.56-.09,12.41-.28,4.85-.19,10.13-.43,15.83-.71,5.7-.28,11.22-.81,16.54-1.57l2.85,27.33c-8.18,3.23-17.16,5.55-26.95,6.98-9.79,1.42-19.16,2.14-28.09,2.14-16.54,0-29.95-2.52-40.21-7.54-10.27-5.03-17.35-13.1-21.25-24.2-3.9-11.1-4.61-25.67-2.14-43.7,2.66-17.46,6.8-31.46,12.41-42,5.61-10.53,13.69-18.22,24.24-23.06,10.55-4.84,24.19-7.26,40.93-7.26Z"/>
      <path class="cls-2" d="M2948.73,741.66l-3.97,27.43h-105.37l3.4-26.01,27.19-1.41h78.74ZM2915.35,703.06l-19.32,134.98c-.76,5.1-.28,8.6,1.42,10.49,1.7,1.89,5.3,2.84,10.79,2.84h19.03l1.99,28.64c-3.6,1.13-7.91,2.13-12.92,2.98-5.02.85-9.9,1.46-14.63,1.84-4.74.38-8.62.57-11.65.57-13.07,0-22.97-3.54-29.68-10.63-6.73-7.09-9.14-16.68-7.24-28.78l20.74-142.93h41.47Z"/>
      <path class="cls-2" d="M3036.66,737.76c17.3,0,31.18,2.52,41.64,7.54,10.45,5.03,17.54,13.05,21.25,24.06,3.71,11.01,4.23,25.82,1.57,44.41-2.47,17.65-6.7,31.75-12.69,42.28-5.99,10.53-14.4,18.08-25.24,22.63-10.84,4.56-24.91,6.83-42.21,6.83s-30.94-2.47-41.5-7.4c-10.55-4.93-17.78-12.91-21.68-23.92-3.9-11.01-4.61-25.62-2.14-43.85,2.66-17.84,6.94-32.03,12.83-42.56,5.89-10.53,14.4-18.17,25.53-22.92,11.12-4.74,25.33-7.12,42.64-7.12ZM3036.09,768.51c-7.61,0-13.74,1.24-18.4,3.7-4.66,2.47-8.37,6.93-11.12,13.38-2.76,6.45-4.99,15.85-6.7,28.19-1.52,10.82-1.95,19.27-1.28,25.34.66,6.08,2.9,10.25,6.7,12.53,3.8,2.28,9.41,3.42,16.83,3.42s13.69-1.28,18.25-3.84c4.56-2.56,8.17-7.07,10.84-13.52,2.66-6.45,4.85-15.56,6.56-27.33,1.52-11.2,1.95-19.79,1.28-25.77-.67-5.98-2.85-10.15-6.56-12.53-3.71-2.37-9.18-3.56-16.4-3.56Z"/>
      <path class="cls-2" d="M3172.13,741.66l.28,33.49,3.7,3.97-14.21,102.73h-42.07l19.61-140.19h32.69ZM3241.06,737.6l-9.03,38.6h-10.16c-6.59,0-13.69,1.46-21.31,4.37-7.62,2.91-17.17,7.28-28.65,13.1l-1.69-24.51c11.1-10.33,21.92-18.17,32.46-23.53,10.54-5.35,20.51-8.03,29.92-8.03h8.47Z"/>
      <path class="cls-2" d="M3291.93,741.66l11.95,107.93c.57,3.22,2.46,4.83,5.69,4.83h15.95l-11.33,27.43h-28.91c-4.36,0-8.06-1.32-11.09-3.97-3.03-2.65-4.93-5.96-5.68-9.93l-22.17-126.28h45.59ZM3400,741.66c-1.52,9.3-3.56,18.79-6.13,28.47-2.57,9.68-5.47,19.27-8.7,28.76-3.23,9.49-6.61,18.56-10.12,27.19-3.52,8.64-7.04,16.66-10.55,24.06-3.52,7.4-6.99,13.95-10.41,19.65-9.51,16.32-19.39,29.61-29.66,39.86-10.27,10.25-21.3,17.84-33.08,22.78-11.79,4.93-24.72,7.78-38.79,8.54l-4.28-24.77c7.03-2.09,13.69-4.41,19.96-6.98,6.27-2.56,12.31-5.93,18.11-10.11,5.8-4.18,11.45-9.82,16.97-16.94,5.51-7.12,11.02-16.27,16.54-27.47,5.7-11.2,10.69-22.39,14.97-33.6,4.28-11.2,8.08-23.25,11.41-36.16,3.32-12.91,6.32-27.33,8.98-43.28h44.78Z"/>
    </g>
    <g>
      <path class="cls-2" d="M856.86,1072.86v-101.6h40.1c17.71,0,27.37,11.11,27.37,28.5s-9.66,28.65-27.37,28.65h-31.2v44.45h-8.9ZM865.76,1020.79h31.5c11.77,0,18.1-7.35,18.1-17.5v-7.06c0-10-6.33-17.35-18.1-17.35h-31.5v41.91Z"/>
      <path class="cls-2" d="M939.5,1022.6c0-34.47,15.8-52.73,41.83-52.73s41.69,18.26,41.69,52.73-15.8,52.73-41.69,52.73-41.83-18.26-41.83-52.73ZM1013.28,1029.04v-12.87c0-24.27-12.88-38.45-32.36-38.45s-32.5,14.18-32.5,38.45v12.87c0,24.27,12.88,38.45,32.5,38.45s32.36-14.18,32.36-38.45Z"/>
      <path class="cls-2" d="M1061.15,1072.86l-25.65-101.6h9.15l21.86,91.44h.44l24.21-91.44h10.71l23.92,91.44h.44l22.6-91.44h8.85l-26.53,101.6h-10.48l-24.23-91.44h-.29l-24.52,91.44h-10.48Z"/>
      <path class="cls-2" d="M1176.07,1074.13v-102.87h59.77v8.89h-50.87v38.1h48.33v7.62h-48.33v40.64h50.87v7.62h-59.77Z"/>
      <path class="cls-2" d="M1268.91,1072.86h-8.9v-101.6h39.94c17.35,0,27.26,10.48,27.26,28.24,0,15.57-7.87,25.91-22.45,27.8l25.07,45.56h-10.21l-24.06-44.45h-26.65v44.45ZM1300.4,1020.79c11.77,0,18.1-7.35,18.1-17.5v-7.06c0-10-6.33-17.35-18.1-17.35h-31.5v41.91h31.5Z"/>
      <path class="cls-2" d="M1352.84,1072.86v-101.6h58.5v7.62h-49.6v39.37h45.78v7.62h-45.78v46.99h-8.9Z"/>
      <path class="cls-2" d="M1440.59,971.26v62.95c0,22.64,6.49,32.86,26.71,32.86s26.71-10.22,26.71-32.86v-62.95h8.9v61.05c0,29.94-9.29,42.65-35.26,42.65s-34.68-12.71-34.68-42.65v-61.05h7.63Z"/>
      <path class="cls-2" d="M1530.89,1074.13v-102.87h8.9v95.25h44.51v7.62h-53.41Z"/>
      <path class="cls-2" d="M1637.71,971.26h32.36c26.09,0,41.1,17.03,41.1,50.8s-15.01,50.8-41.1,50.8h-32.36v-101.6ZM1669.35,1065.24c20.17,0,31.95-13.86,31.95-36.47v-13.42c0-22.61-11.78-36.47-31.95-36.47h-24v86.36h24Z"/>
      <path class="cls-2" d="M1729.28,1074.13v-7.62h15.26v-87.63h-15.26v-7.62h39.42v7.62h-15.26v87.63h13.99v7.62h-38.15Z"/>
      <path class="cls-2" d="M1857.73,1057.62h0c-3.68,10.5-14.29,17.59-30.2,17.59-25.34,0-41.54-18.48-41.54-53.36s16.06-53.36,42.13-53.36c17.53,0,29.76,8.87,35.95,22.03l-7.22,4.29c-5.01-11.38-15.17-18.33-28.73-18.33-19.89,0-32.71,14.49-32.71,39.03v12.56c0,24.69,12.67,39.17,33.44,39.17,15.62,0,28.87-8.28,28.87-25.13v-12.42h-24.16v-6.35h31.79v49.53h-7.63v-15.24Z"/>
      <path class="cls-2" d="M1885.71,1074.13v-7.62h15.26v-87.63h-13.99v-7.62h38.15v7.62h-15.26v87.63h15.26v7.62h-39.42Z"/>
      <path class="cls-2" d="M1979.82,978.88v93.98h-8.9v-93.98h-34.34v-7.62h77.58v7.62h-34.34Z"/>
      <path class="cls-2" d="M2085.57,1072.86l-10.69-30.48h-41.77l-10.69,30.48h-9.89l36-101.6h11.22l36.15,101.6h-10.33ZM2054.21,980.15h-.59l-19.26,54.61h39.1l-19.26-54.61Z"/>
      <path class="cls-2" d="M2114.62,1074.13v-102.87h8.9v95.25h44.51v7.62h-53.41Z"/>
      <path class="cls-2" d="M2212.33,1057.95l6.58-5.4c7.17,9.49,15.8,15.04,29.11,15.04,15.8,0,24.57-7.89,24.57-21.32,0-12.56-7.61-17.38-20.62-20.16l-9.07-1.9c-19.31-3.94-27.79-13.15-27.79-27.31,0-17.82,13.16-27.02,32.76-27.02,15.21,0,25.6,5.84,32.33,15.63l-6.58,4.82c-5.7-8.03-13.9-12.71-26.18-12.71-14.63,0-23.7,6.43-23.7,18.99s8.19,16.8,20.92,19.43l9.07,1.9c20.33,4.38,27.5,13.88,27.5,27.9,0,18.55-12.73,29.5-33.5,29.5-16.67,0-27.5-6.86-35.4-17.38Z"/>
      <path class="cls-2" d="M2298.48,1022.6c0-34.47,15.8-52.73,41.83-52.73s41.69,18.26,41.69,52.73-15.8,52.73-41.69,52.73-41.83-18.26-41.83-52.73ZM2372.79,1029.04v-12.87c0-24.27-12.88-38.45-32.36-38.45s-32.5,14.18-32.5,38.45v12.87c0,24.27,12.88,38.45,32.5,38.45s32.36-14.18,32.36-38.45Z"/>
      <path class="cls-2" d="M2405.85,1074.13v-102.87h8.9v95.25h44.51v7.62h-53.41Z"/>
      <path class="cls-2" d="M2480.89,971.26v62.95c0,22.64,6.49,32.86,26.71,32.86s26.71-10.22,26.71-32.86v-62.95h8.9v61.05c0,29.94-9.29,42.65-35.26,42.65s-34.68-12.71-34.68-42.65v-61.05h7.63Z"/>
      <path class="cls-2" d="M2602.97,978.88v93.98h-8.9v-93.98h-34.34v-7.62h77.58v7.62h-34.34Z"/>
      <path class="cls-2" d="M2648.76,1074.13v-7.62h15.26v-87.63h-15.26v-7.62h39.42v7.62h-15.26v87.63h13.99v7.62h-38.15Z"/>
      <path class="cls-2" d="M2705.84,1022.6c0-34.47,15.8-52.73,41.83-52.73s41.69,18.26,41.69,52.73-15.8,52.73-41.69,52.73-41.83-18.26-41.83-52.73ZM2779.75,1029.04v-12.87c0-24.27-12.88-38.45-32.36-38.45s-32.5,14.18-32.5,38.45v12.87c0,24.27,12.88,38.45,32.5,38.45s32.36-14.18,32.36-38.45Z"/>
      <path class="cls-2" d="M2822.15,983.96h-.44v88.9h-8.9v-101.6h8.07l56.33,90.17h.46v-90.17h8.9v102.87h-10.93l-53.49-90.17Z"/>
      <path class="cls-2" d="M2907.25,1057.95l6.58-5.4c7.17,9.49,15.8,15.04,29.11,15.04,15.8,0,24.57-7.89,24.57-21.32,0-12.56-7.61-17.38-20.62-20.16l-9.07-1.9c-19.31-3.94-27.79-13.15-27.79-27.31,0-17.82,13.16-27.02,32.76-27.02,15.21,0,25.6,5.84,32.33,15.63l-6.58,4.82c-5.7-8.03-13.9-12.71-26.18-12.71-14.63,0-23.7,6.43-23.7,18.99s8.19,16.8,20.92,19.43l9.07,1.9c20.33,4.38,27.5,13.88,27.5,27.9,0,18.55-12.73,29.5-33.5,29.5-16.67,0-27.5-6.86-35.4-17.38Z"/>
    </g>
  </g>
</svg>