<?xml version="1.0" encoding="UTF-8"?>
<svg id="Layer_2" data-name="Layer 2" xmlns="http://www.w3.org/2000/svg" viewBox="0 0 3499.83 833">
  <defs>
    <style>
      .cls-1 {
        fill: #d0d2d3;
      }

      .cls-2 {
        fill: #131415;
      }

      .cls-3 {
        fill: #f6f8f9;
      }
    </style>
  </defs>
  <g id="Layer_1-2" data-name="Layer 1">
    <g>
      <path class="cls-3" d="M563.56,812.25c-48.42,0-95.35-13.93-135.72-40.28l-11.34-7.41-11.34,7.41c-40.37,26.35-87.3,40.28-135.72,40.28-66.43,0-128.88-25.88-175.85-72.87-46.97-46.99-72.84-109.47-72.84-175.93,0-59.69,21.45-117.41,60.39-162.52,38.55-44.66,91.68-74.23,149.61-83.28l19.83-3.1-2.44-19.92c-1.21-9.9-1.83-19.98-1.83-29.98,0-65.15,25.36-126.4,71.41-172.47,46.05-46.07,107.27-71.44,172.4-71.44s126.35,25.37,172.4,71.44c46.05,46.07,71.41,107.32,71.41,172.47,0,29.57-5.23,58.47-15.55,85.89l-5.14,13.67,11.13,9.45c55.85,47.41,87.88,116.58,87.88,189.78,0,66.46-25.87,128.93-72.84,175.93-46.97,46.99-109.42,72.87-175.85,72.87Z"/>
      <path class="cls-1" d="M490.12,41.5c30.13,0,59.33,5.89,86.81,17.52,26.56,11.24,50.42,27.33,70.91,47.84,20.5,20.51,36.59,44.38,47.82,70.95,11.62,27.49,17.51,56.71,17.51,86.86,0,27.07-4.78,53.51-14.22,78.59l-10.29,27.34,22.27,18.91c51.19,43.46,80.55,106.87,80.55,173.96,0,30.81-6.02,60.67-17.9,88.76-11.48,27.15-27.92,51.54-48.87,72.5-20.95,20.96-45.33,37.4-72.47,48.89-28.07,11.88-57.92,17.9-88.71,17.9-44.38,0-87.39-12.76-124.37-36.91l-22.69-14.81-22.69,14.81c-36.98,24.14-79.99,36.91-124.37,36.91-30.79,0-60.63-6.02-88.71-17.9-27.14-11.48-51.52-27.93-72.47-48.89-20.95-20.96-37.39-45.35-48.87-72.5-11.88-28.09-17.9-57.95-17.9-88.76,0-27.87,4.96-55.07,14.73-80.85,9.45-24.91,23.11-47.83,40.61-68.11,35.34-40.94,84.03-68.05,137.1-76.34l39.67-6.2-4.88-39.85c-1.11-9.06-1.67-18.3-1.67-27.46,0-30.15,5.89-59.37,17.51-86.86,11.23-26.57,27.32-50.44,47.82-70.95,20.5-20.51,44.36-36.6,70.91-47.84,27.47-11.62,56.68-17.52,86.81-17.52M490.12,0C344.01,0,225.56,118.49,225.56,264.66c0,11,.68,21.85,1.98,32.5C98.63,317.29,0,428.85,0,563.46c0,148.86,120.63,269.54,269.44,269.54,54.26,0,104.77-16.05,147.06-43.66,42.29,27.61,92.8,43.66,147.06,43.66,148.81,0,269.44-120.68,269.44-269.54,0-82.4-36.96-156.16-95.2-205.6,10.9-28.99,16.87-60.4,16.87-93.2C754.68,118.49,636.23,0,490.12,0h0Z"/>
    </g>
    <g>
      <g>
        <path class="cls-2" d="M1164.79,227.57l-4.53,33.95h-160.42l4.82-33.95h160.13ZM1106.07,227.57l-27.14,192.73h-42.81l27.14-192.73h42.81Z"/>
        <path class="cls-2" d="M1226.94,224.57l-6.72,48.65c-1.12,8.76-2.85,17.34-5.18,25.72-2.34,8.39-4.44,15.01-6.3,19.85l4.2,3.36-13.44,98.14h-41.45l27.45-195.73h41.45ZM1272.11,278.4c12.9,0,22.47,3.36,28.74,10.08,6.26,6.72,8.45,16.42,6.59,29.11l-14.58,102.72h-41.49l13.18-91.52c.74-5.97.37-10.03-1.12-12.18-1.5-2.14-4.49-3.22-8.97-3.22-6.73,0-13.55,1.92-20.47,5.74-6.92,3.83-15.33,9.66-25.23,17.49l-4.77-20.99c12.52-12.69,24.43-22.06,35.75-28.13,11.31-6.06,22.1-9.1,32.38-9.1Z"/>
        <path class="cls-2" d="M1410.33,278.66c17.01,0,30.14,1.82,39.39,5.46,9.25,3.64,15.46,9.05,18.64,16.23,3.18,7.18,3.92,16,2.24,26.45-1.31,8.58-4.16,15.35-8.55,20.29-4.39,4.95-10.42,8.63-18.08,11.06-7.67,2.43-17.38,4.11-29.16,5.04l-70.65,5.88,3.08-22.95,59.44-5.88c5.05-.56,9.2-1.35,12.48-2.38,3.27-1.02,5.84-2.7,7.71-5.04,1.87-2.33,3.08-5.64,3.64-9.94.75-4.48.46-7.84-.84-10.08-1.31-2.24-3.64-3.68-7.01-4.34-3.36-.65-7.85-.88-13.46-.7-5.8,0-10.65.56-14.58,1.68-3.92,1.12-7.2,3.13-9.81,6.02-2.62,2.9-4.77,7-6.45,12.32-1.68,5.32-3.27,12.17-4.77,20.57-1.87,12.13-2.15,21.27-.84,27.43,1.31,6.16,4.21,10.26,8.69,12.31,4.49,2.06,10.75,3.08,18.78,3.08,4.49,0,9.9-.14,16.26-.42,6.35-.28,12.85-.65,19.49-1.12,6.63-.46,12.66-.98,18.08-1.54l2.8,25.75c-5.61,2.43-11.96,4.39-19.06,5.88-7.11,1.49-14.3,2.56-21.59,3.22-7.29.65-14.11.98-20.47.98-18.5,0-32.85-2.8-43.04-8.4-10.19-5.6-16.96-13.95-20.33-25.05-3.36-11.1-4.11-24.77-2.24-41,1.68-14.37,4.53-26.12,8.55-35.26,4.02-9.14,9.25-16.28,15.7-21.41,6.45-5.13,14.34-8.77,23.69-10.92,9.34-2.14,20.09-3.22,32.24-3.22Z"/>
        <path class="cls-2" d="M1645.55,224.5c20.37,0,36.59,3.03,48.64,9.1,12.06,6.07,20.14,16.42,24.25,31.07,4.11,14.65,4.3,34.94.56,60.87-2.8,19.97-6.54,36.34-11.21,49.12-4.67,12.78-10.65,22.67-17.94,29.67-7.29,7-16.45,11.89-27.48,14.69-11.03,2.8-24.21,4.2-39.53,4.2-13.46,0-26.54-.28-39.25-.84-12.71-.56-24.86-1.22-36.45-1.96l21.03-31.63c6.91.38,15.42.7,25.51.98,10.09.28,19.63.42,28.6.42,7.85,0,14.62-.88,20.33-2.66,5.7-1.77,10.56-5.08,14.58-9.94,4.02-4.85,7.38-11.71,10.09-20.57,2.71-8.86,5-20.48,6.87-34.85,1.87-13.25,2.8-24.11,2.8-32.61s-1.08-15.07-3.22-19.73c-2.15-4.66-5.66-7.93-10.51-9.8-4.86-1.86-11.21-2.8-19.06-2.8-5.8,0-11.87.05-18.22.14-6.36.1-12.57.14-18.64.14h-16.68l-16.26-30.23c6.73-.56,14.11-1.07,22.15-1.54,8.03-.46,16.26-.79,24.67-.98,8.41-.18,16.54-.28,24.39-.28ZM1617.16,227.57l-27.14,192.73h-42.81l27.14-192.73h42.81Z"/>
        <path class="cls-2" d="M1787.78,282.49l.28,32.92,3.63,3.91-13.97,100.98h-41.36l19.28-137.81h32.14ZM1854.62,278.5l-8.88,37.95h-9.99c-6.48,0-13.46,1.43-20.95,4.29-7.49,2.86-16.88,7.16-28.16,12.88l-1.66-24.1c10.91-10.15,21.55-17.87,31.91-23.13,10.36-5.26,20.16-7.89,29.41-7.89h8.32Z"/>
        <path class="cls-2" d="M1937.96,278.66c17.01,0,30.14,1.82,39.39,5.46,9.25,3.64,15.46,9.05,18.64,16.23,3.18,7.18,3.92,16,2.24,26.45-1.31,8.58-4.16,15.35-8.55,20.29-4.39,4.95-10.42,8.63-18.08,11.06-7.67,2.43-17.38,4.11-29.16,5.04l-70.65,5.88,3.08-22.95,59.44-5.88c5.05-.56,9.2-1.35,12.48-2.38,3.27-1.02,5.84-2.7,7.71-5.04,1.87-2.33,3.08-5.64,3.64-9.94.75-4.48.46-7.84-.84-10.08-1.31-2.24-3.64-3.68-7.01-4.34-3.36-.65-7.85-.88-13.46-.7-5.8,0-10.65.56-14.58,1.68-3.92,1.12-7.2,3.13-9.81,6.02-2.62,2.9-4.77,7-6.45,12.32-1.68,5.32-3.27,12.17-4.77,20.57-1.87,12.13-2.15,21.27-.84,27.43,1.31,6.16,4.21,10.26,8.69,12.31,4.49,2.06,10.75,3.08,18.78,3.08,4.49,0,9.9-.14,16.26-.42,6.35-.28,12.85-.65,19.49-1.12,6.63-.46,12.66-.98,18.08-1.54l2.8,25.75c-5.61,2.43-11.96,4.39-19.06,5.88-7.11,1.49-14.3,2.56-21.59,3.22-7.29.65-14.11.98-20.47.98-18.5,0-32.85-2.8-43.04-8.4-10.19-5.6-16.96-13.95-20.33-25.05-3.36-11.1-4.11-24.77-2.24-41,1.68-14.37,4.53-26.12,8.55-35.26,4.02-9.14,9.25-16.28,15.7-21.41,6.45-5.13,14.34-8.77,23.69-10.92,9.34-2.14,20.09-3.22,32.24-3.22Z"/>
        <path class="cls-2" d="M2097.21,278.66c4.86,0,10.32.24,16.4.7,6.07.47,12.24,1.08,18.5,1.82,6.26.75,12.15,1.59,17.66,2.52,5.51.94,10.04,1.87,13.6,2.8l-28.32,22.39c-7.48-.37-14.3-.6-20.47-.7-6.17-.09-11.96-.14-17.38-.14-6.17,0-11.4.47-15.7,1.4-4.3.94-7.85,2.76-10.65,5.46-2.8,2.71-5.14,6.77-7.01,12.18-1.87,5.41-3.46,12.69-4.77,21.83-1.68,11.57-2.57,20.39-2.66,26.45-.1,6.07.98,10.22,3.22,12.46s5.79,3.27,10.65,3.08c5.05-.18,10.33-1.86,15.84-5.04,5.51-3.17,10.98-7.51,16.4-13.01,5.42-5.5,10.65-11.71,15.7-18.61l7.29,13.43c-3.74,11.01-9.02,20.67-15.84,28.97-6.83,8.3-14.82,14.79-23.97,19.45-9.16,4.66-19.35,7.28-30.56,7.84-12.15.56-21.45-1.87-27.9-7.28-6.45-5.41-10.42-13.81-11.92-25.19-1.5-11.38-.94-25.65,1.68-42.82,2.43-15.86,5.84-28.5,10.23-37.92,4.39-9.42,9.95-16.42,16.68-20.99,6.73-4.57,14.53-7.56,23.41-8.96,8.88-1.4,18.83-2.1,29.86-2.1ZM2122.44,283.72l40.93,2.52-18.78,134.06h-32.24l.56-31.35-5.05-3.36,14.58-101.88Z"/>
        <path class="cls-2" d="M2229.79,282.49l.28,31.8,3.63,3.91-14.25,102.1h-41.08l19.28-137.81h32.14ZM2284.77,278.4c12.9,0,22.29,3.45,28.18,10.36,5.89,6.91,7.99,16.51,6.31,28.83l-14.58,102.72h-39.81l12.9-91.52c.74-5.6.28-9.56-1.4-11.89-1.68-2.33-4.86-3.5-9.53-3.5-3.36,0-6.92.75-10.65,2.24-3.74,1.5-7.95,3.87-12.62,7.14-4.67,3.27-10.37,7.79-17.1,13.57l-5.05-20.71c11.59-12.87,22.33-22.29,32.24-28.27,9.9-5.97,20.28-8.96,31.12-8.96ZM2371.12,278.4c13.08,0,22.61,3.5,28.6,10.5,5.98,7,8.03,16.56,6.17,28.69l-14.3,102.72h-41.21l12.9-91.52c.74-5.97.14-10.03-1.82-12.18-1.96-2.14-5-3.22-9.11-3.22-3.18,0-6.59.7-10.23,2.1-3.64,1.4-7.76,3.73-12.34,7-4.58,3.27-10.05,7.79-16.4,13.57l-5.33-20.43c11.59-13.06,22.29-22.53,32.1-28.41,9.81-5.88,20.14-8.82,30.98-8.82Z"/>
        <path class="cls-2" d="M2553.37,226.72c15.29,0,30.68.14,46.17.42,15.48.28,29.56,1.26,42.25,2.93l-5.04,30.45h-68.27c-5.97,0-10.35,1.07-13.15,3.21-2.8,2.14-4.57,6.1-5.32,11.87l-20.43,144.69h-42.81l21.55-155.03c1.86-12.1,6.81-21.55,14.83-28.35,8.02-6.8,18.09-10.2,30.22-10.2ZM2506.56,308.46h113.53l-3.96,29.96h-113.81l4.25-29.96Z"/>
        <path class="cls-2" d="M2721,278.66c4.86,0,10.33.24,16.4.7,6.07.47,12.24,1.08,18.5,1.82,6.26.75,12.15,1.59,17.66,2.52,5.51.94,10.05,1.87,13.6,2.8l-28.32,22.39c-7.48-.37-14.3-.6-20.47-.7-6.17-.09-11.96-.14-17.38-.14-6.17,0-11.4.47-15.7,1.4-4.3.94-7.85,2.76-10.65,5.46-2.8,2.71-5.14,6.77-7.01,12.18-1.87,5.41-3.46,12.69-4.77,21.83-1.68,11.57-2.57,20.39-2.66,26.45-.1,6.07.98,10.22,3.22,12.46,2.24,2.24,5.79,3.27,10.65,3.08,5.05-.18,10.33-1.86,15.84-5.04,5.51-3.17,10.98-7.51,16.4-13.01,5.42-5.5,10.65-11.71,15.7-18.61l7.29,13.43c-3.74,11.01-9.02,20.67-15.84,28.97-6.83,8.3-14.82,14.79-23.97,19.45-9.16,4.66-19.35,7.28-30.56,7.84-12.15.56-21.45-1.87-27.9-7.28-6.45-5.41-10.42-13.81-11.92-25.19-1.5-11.38-.94-25.65,1.68-42.82,2.43-15.86,5.84-28.5,10.23-37.92,4.39-9.42,9.95-16.42,16.68-20.99,6.73-4.57,14.53-7.56,23.41-8.96,8.87-1.4,18.83-2.1,29.86-2.1ZM2746.23,283.72l40.93,2.52-18.78,134.06h-32.24l.56-31.35-5.05-3.36,14.58-101.88Z"/>
        <path class="cls-2" d="M2881.92,278.66c8.78,0,18.13.7,28.04,2.1,9.9,1.4,18.6,3.69,26.07,6.86l-5.89,25.47c-8.23-.37-16.08-.6-23.55-.7-7.48-.09-13.83-.14-19.06-.14-8.23,0-14.96,1.12-20.19,3.36-5.23,2.24-9.25,6.21-12.06,11.89-2.8,5.69-4.86,13.67-6.17,23.93-1.5,10.82-1.68,19.03-.56,24.63,1.12,5.6,3.88,9.42,8.27,11.48,4.39,2.06,10.61,3.08,18.64,3.08,3.36,0,7.43-.09,12.2-.28,4.77-.18,9.95-.42,15.56-.7,5.61-.28,11.03-.79,16.26-1.54l2.8,26.87c-8.04,3.17-16.87,5.46-26.49,6.86-9.63,1.4-18.83,2.1-27.62,2.1-16.26,0-29.44-2.48-39.53-7.42-10.09-4.94-17.06-12.87-20.89-23.79-3.83-10.92-4.53-25.23-2.1-42.96,2.61-17.16,6.68-30.93,12.2-41.28,5.51-10.36,13.46-17.91,23.83-22.67,10.37-4.76,23.78-7.14,40.23-7.14Z"/>
        <path class="cls-2" d="M3056.22,282.49l-3.9,26.96h-103.58l3.34-25.57,26.73-1.39h77.41ZM3023.41,244.54l-18.99,132.7c-.75,5.02-.28,8.46,1.4,10.31,1.68,1.86,5.21,2.79,10.61,2.79h18.71l1.95,28.16c-3.54,1.12-7.77,2.09-12.71,2.93-4.93.84-9.73,1.44-14.38,1.81-4.66.37-8.47.56-11.45.56-12.85,0-22.58-3.48-29.18-10.45-6.61-6.97-8.98-16.4-7.12-28.3l20.39-140.5h40.77Z"/>
        <path class="cls-2" d="M3142.66,278.66c17.01,0,30.65,2.48,40.93,7.42,10.28,4.95,17.24,12.83,20.89,23.65,3.64,10.82,4.16,25.38,1.54,43.66-2.43,17.35-6.59,31.21-12.48,41.56-5.89,10.36-14.16,17.77-24.81,22.25-10.65,4.48-24.49,6.72-41.49,6.72s-30.42-2.43-40.79-7.28c-10.37-4.85-17.48-12.69-21.31-23.51-3.83-10.82-4.53-25.19-2.1-43.1,2.61-17.54,6.82-31.49,12.62-41.84,5.79-10.36,14.16-17.86,25.09-22.53,10.93-4.66,24.9-7,41.91-7ZM3142.1,308.88c-7.48,0-13.51,1.22-18.08,3.64-4.58,2.43-8.23,6.81-10.93,13.15-2.71,6.35-4.91,15.58-6.59,27.71-1.5,10.64-1.92,18.94-1.26,24.91.65,5.97,2.85,10.08,6.59,12.31,3.74,2.24,9.25,3.36,16.54,3.36s13.46-1.26,17.94-3.78c4.49-2.52,8.03-6.95,10.65-13.29,2.62-6.34,4.77-15.3,6.45-26.87,1.49-11.01,1.91-19.45,1.26-25.33-.66-5.88-2.8-9.98-6.45-12.32-3.64-2.33-9.02-3.5-16.12-3.5Z"/>
        <path class="cls-2" d="M3275.83,282.49l.28,32.92,3.63,3.91-13.97,100.98h-41.36l19.28-137.81h32.14ZM3343.59,278.5l-8.88,37.95h-9.99c-6.48,0-13.46,1.43-20.95,4.29-7.49,2.86-16.88,7.16-28.16,12.88l-1.66-24.1c10.91-10.15,21.55-17.87,31.91-23.13,10.36-5.26,20.16-7.89,29.41-7.89h8.32Z"/>
        <path class="cls-2" d="M3393.6,282.49l11.75,106.1c.56,3.17,2.42,4.75,5.59,4.75h15.68l-11.14,26.96h-28.42c-4.29,0-7.92-1.3-10.9-3.91-2.98-2.6-4.85-5.86-5.59-9.76l-21.8-124.14h44.82ZM3499.83,282.49c-1.5,9.14-3.5,18.47-6.03,27.99-2.52,9.52-5.38,18.94-8.55,28.27-3.18,9.33-6.5,18.24-9.95,26.73-3.46,8.49-6.92,16.37-10.37,23.65-3.46,7.28-6.87,13.71-10.23,19.31-9.35,16.05-19.06,29.11-29.16,39.18-10.09,10.08-20.94,17.54-32.52,22.39-11.59,4.85-24.3,7.65-38.13,8.4l-4.2-24.35c6.91-2.06,13.46-4.34,19.62-6.86s12.1-5.83,17.8-9.94c5.7-4.11,11.26-9.66,16.68-16.65,5.42-7,10.84-16,16.26-27.01,5.61-11.01,10.51-22.01,14.72-33.03,4.21-11.01,7.94-22.85,11.21-35.54,3.27-12.69,6.21-26.87,8.83-42.54h44.02Z"/>
      </g>
      <g>
        <path class="cls-2" d="M999.83,608.07v-99.87h39.42c17.41,0,26.91,10.92,26.91,28.02s-9.5,28.16-26.91,28.16h-30.67v43.69h-8.75ZM1008.58,556.88h30.96c11.57,0,17.8-7.23,17.8-17.2v-6.94c0-9.83-6.22-17.06-17.8-17.06h-30.96v41.2Z"/>
        <path class="cls-2" d="M1081.07,558.67c0-33.89,15.53-51.83,41.12-51.83s40.98,17.95,40.98,51.83-15.53,51.83-40.98,51.83-41.12-17.95-41.12-51.83ZM1153.61,564.99v-12.65c0-23.86-12.67-37.8-31.81-37.8s-31.95,13.94-31.95,37.8v12.65c0,23.86,12.67,37.8,31.95,37.8s31.81-13.94,31.81-37.8Z"/>
        <path class="cls-2" d="M1200.66,608.07l-25.22-99.87h8.99l21.49,89.88h.43l23.8-89.88h10.53l23.51,89.88h.43l22.21-89.88h8.7l-26.08,99.87h-10.3l-23.82-89.88h-.29l-24.11,89.88h-10.3Z"/>
        <path class="cls-2" d="M1313.63,609.32v-101.12h58.76v8.74h-50.01v37.45h47.51v7.49h-47.51v39.95h50.01v7.49h-58.76Z"/>
        <path class="cls-2" d="M1404.89,608.07h-8.75v-99.87h39.26c17.05,0,26.79,10.3,26.79,27.76,0,15.31-7.74,25.47-22.07,27.33l24.65,44.79h-10.04l-23.65-43.69h-26.2v43.69ZM1435.85,556.88c11.57,0,17.8-7.23,17.8-17.2v-6.94c0-9.83-6.22-17.06-17.8-17.06h-30.96v41.2h30.96Z"/>
        <path class="cls-2" d="M1487.4,608.07v-99.87h57.51v7.49h-48.76v38.7h45.01v7.49h-45.01v46.19h-8.75Z"/>
        <path class="cls-2" d="M1573.67,508.2v61.88c0,22.26,6.38,32.31,26.25,32.31s26.25-10.05,26.25-32.31v-61.88h8.75v60.02c0,29.43-9.13,41.93-34.67,41.93s-34.09-12.49-34.09-41.93v-60.02h7.5Z"/>
        <path class="cls-2" d="M1662.43,609.32v-101.12h8.75v93.63h43.76v7.49h-52.51Z"/>
        <path class="cls-2" d="M1767.44,508.2h31.81c25.65,0,40.41,16.74,40.41,49.94s-14.76,49.94-40.41,49.94h-31.81v-99.87ZM1798.54,600.58c19.83,0,31.41-13.62,31.41-35.85v-13.19c0-22.23-11.58-35.85-31.41-35.85h-23.6v84.89h23.6Z"/>
        <path class="cls-2" d="M1857.46,609.32v-7.49h15v-86.14h-15v-7.49h38.76v7.49h-15v86.14h13.75v7.49h-37.51Z"/>
        <path class="cls-2" d="M1983.72,593.09h0c-3.62,10.32-14.05,17.29-29.69,17.29-24.91,0-40.84-18.16-40.84-52.46s15.79-52.46,41.42-52.46c17.23,0,29.25,8.72,35.34,21.65l-7.1,4.21c-4.92-11.19-14.92-18.02-28.24-18.02-19.55,0-32.15,14.24-32.15,38.36v12.35c0,24.27,12.45,38.51,32.87,38.51,15.35,0,28.38-8.14,28.38-24.7v-12.21h-23.75v-6.24h31.25v48.69h-7.5v-14.98Z"/>
        <path class="cls-2" d="M2011.23,609.32v-7.49h15v-86.14h-13.75v-7.49h37.51v7.49h-15v86.14h15v7.49h-38.76Z"/>
        <path class="cls-2" d="M2103.74,515.69v92.38h-8.75v-92.38h-33.75v-7.49h76.26v7.49h-33.75Z"/>
        <path class="cls-2" d="M2207.7,608.07l-10.51-29.96h-41.07l-10.51,29.96h-9.72l35.39-99.87h11.03l35.54,99.87h-10.15ZM2176.87,516.93h-.58l-18.93,53.68h38.44l-18.93-53.68Z"/>
        <path class="cls-2" d="M2236.26,609.32v-101.12h8.75v93.63h43.76v7.49h-52.51Z"/>
        <path class="cls-2" d="M2332.31,593.41l6.47-5.31c7.05,9.33,15.53,14.79,28.61,14.79,15.53,0,24.16-7.75,24.16-20.96,0-12.35-7.48-17.09-20.27-19.81l-8.92-1.87c-18.98-3.88-27.32-12.92-27.32-26.85,0-17.52,12.94-26.56,32.21-26.56,14.95,0,25.16,5.74,31.78,15.36l-6.47,4.74c-5.61-7.9-13.66-12.49-25.74-12.49-14.38,0-23.29,6.32-23.29,18.67s8.05,16.51,20.56,19.1l8.92,1.87c19.99,4.31,27.03,13.64,27.03,27.42,0,18.24-12.51,29-32.93,29-16.39,0-27.03-6.75-34.8-17.09Z"/>
        <path class="cls-2" d="M2417,558.67c0-33.89,15.53-51.83,41.12-51.83s40.98,17.95,40.98,51.83-15.53,51.83-40.98,51.83-41.12-17.95-41.12-51.83ZM2490.05,564.99v-12.65c0-23.86-12.67-37.8-31.81-37.8s-31.95,13.94-31.95,37.8v12.65c0,23.86,12.67,37.8,31.95,37.8s31.81-13.94,31.81-37.8Z"/>
        <path class="cls-2" d="M2522.55,609.32v-101.12h8.75v93.63h43.76v7.49h-52.51Z"/>
        <path class="cls-2" d="M2596.31,508.2v61.88c0,22.26,6.38,32.31,26.25,32.31s26.25-10.05,26.25-32.31v-61.88h8.75v60.02c0,29.43-9.13,41.93-34.67,41.93s-34.09-12.49-34.09-41.93v-60.02h7.5Z"/>
        <path class="cls-2" d="M2716.33,515.69v92.38h-8.75v-92.38h-33.75v-7.49h76.26v7.49h-33.75Z"/>
        <path class="cls-2" d="M2761.33,609.32v-7.49h15v-86.14h-15v-7.49h38.76v7.49h-15v86.14h13.75v7.49h-37.51Z"/>
        <path class="cls-2" d="M2817.45,558.67c0-33.89,15.53-51.83,41.12-51.83s40.98,17.95,40.98,51.83-15.53,51.83-40.98,51.83-41.12-17.95-41.12-51.83ZM2890.1,564.99v-12.65c0-23.86-12.67-37.8-31.81-37.8s-31.95,13.94-31.95,37.8v12.65c0,23.86,12.67,37.8,31.95,37.8s31.81-13.94,31.81-37.8Z"/>
        <path class="cls-2" d="M2931.79,520.68h-.43v87.39h-8.75v-99.87h7.93l55.37,88.64h.45v-88.64h8.75v101.12h-10.75l-52.58-88.64Z"/>
        <path class="cls-2" d="M3015.44,593.41l6.47-5.31c7.05,9.33,15.53,14.79,28.61,14.79,15.53,0,24.16-7.75,24.16-20.96,0-12.35-7.48-17.09-20.27-19.81l-8.92-1.87c-18.98-3.88-27.32-12.92-27.32-26.85,0-17.52,12.94-26.56,32.21-26.56,14.95,0,25.16,5.74,31.78,15.36l-6.47,4.74c-5.61-7.9-13.66-12.49-25.74-12.49-14.38,0-23.29,6.32-23.29,18.67s8.05,16.51,20.56,19.1l8.92,1.87c19.99,4.31,27.03,13.64,27.03,27.42,0,18.24-12.51,29-32.93,29-16.39,0-27.03-6.75-34.8-17.09Z"/>
      </g>
    </g>
  </g>
</svg>