<?xml version="1.0" encoding="UTF-8"?>
<svg id="Layer_2" data-name="Layer 2" xmlns="http://www.w3.org/2000/svg" viewBox="0 0 3500 355">
  <defs>
    <style>
      .cls-1 {
        fill: #fff;
      }
    </style>
  </defs>
  <g id="Layer_1-2" data-name="Layer 1">
    <g>
      <path class="cls-1" d="M230.93,4.29l-6.35,47.47H0L6.75,4.29h224.19ZM148.73,4.29l-38,269.47h-59.93L88.8,4.29h59.93Z"/>
      <path class="cls-1" d="M317.95.1l-9.41,68.02c-1.57,12.25-3.99,24.24-7.25,35.97-3.27,11.73-6.21,20.98-8.82,27.76l5.88,4.69-18.82,137.22h-58.03L259.91.1h58.04ZM381.19,75.36c18.06,0,31.46,4.7,40.23,14.09,8.76,9.39,11.84,22.96,9.22,40.7l-20.41,143.61h-58.09l18.45-127.96c1.04-8.35.52-14.02-1.57-17.02-2.1-3-6.28-4.5-12.56-4.5-9.42,0-18.98,2.68-28.65,8.02-9.68,5.35-21.46,13.5-35.33,24.46l-6.67-29.35c17.53-17.74,34.21-30.85,50.04-39.33,15.83-8.47,30.94-12.72,45.33-12.72Z"/>
      <path class="cls-1" d="M574.7,75.72c23.81,0,42.19,2.54,55.15,7.63,12.95,5.09,21.65,12.66,26.1,22.7,4.45,10.05,5.49,22.37,3.14,36.98-1.83,12-5.83,21.46-11.97,28.37-6.15,6.92-14.59,12.07-25.32,15.46-10.73,3.39-24.34,5.74-40.82,7.04l-98.91,8.22,4.32-32.09,83.21-8.22c7.07-.78,12.89-1.89,17.47-3.33,4.58-1.43,8.18-3.78,10.79-7.04,2.61-3.26,4.32-7.89,5.1-13.89,1.04-6.26.65-10.96-1.18-14.09-1.83-3.13-5.1-5.15-9.81-6.07-4.71-.91-10.99-1.24-18.84-.98-8.11,0-14.92.78-20.41,2.35-5.49,1.57-10.08,4.37-13.74,8.41-3.67,4.05-6.67,9.78-9.03,17.22-2.36,7.43-4.58,17.02-6.67,28.76-2.62,16.96-3.01,29.74-1.18,38.35,1.83,8.61,5.89,14.35,12.17,17.22,6.28,2.87,15.04,4.3,26.3,4.3,6.28,0,13.87-.2,22.77-.59,8.89-.39,17.99-.91,27.28-1.57,9.28-.65,17.72-1.37,25.32-2.15l3.93,36c-7.85,3.39-16.75,6.13-26.69,8.22-9.95,2.08-20.02,3.58-30.22,4.5-10.2.91-19.76,1.37-28.65,1.37-25.91,0-45.99-3.91-60.25-11.74-14.27-7.83-23.75-19.5-28.46-35.02-4.71-15.52-5.76-34.63-3.14-57.33,2.36-20.09,6.34-36.52,11.97-49.31,5.62-12.78,12.95-22.76,21.98-29.94,9.03-7.17,20.08-12.26,33.17-15.26,13.08-3,28.13-4.5,45.14-4.5Z"/>
      <path class="cls-1" d="M904,0c28.52,0,51.22,4.24,68.1,12.72,16.88,8.48,28.19,22.96,33.95,43.44,5.75,20.48,6.02,48.85.79,85.11-3.92,27.92-9.16,50.81-15.7,68.68-6.54,17.87-14.91,31.7-25.12,41.48-10.2,9.78-23.03,16.63-38.47,20.54-15.44,3.91-33.89,5.87-55.34,5.87-18.84,0-37.16-.39-54.95-1.17-17.8-.78-34.8-1.7-51.03-2.74l29.44-44.22c9.68.53,21.59.98,35.72,1.37,14.13.39,27.48.59,40.04.59,10.99,0,20.47-1.23,28.46-3.72,7.98-2.48,14.78-7.11,20.41-13.89,5.62-6.78,10.33-16.37,14.13-28.76,3.79-12.39,7-28.63,9.62-48.72,2.61-18.52,3.92-33.71,3.92-45.59s-1.51-21.06-4.51-27.59c-3.01-6.52-7.92-11.08-14.72-13.7-6.81-2.6-15.7-3.91-26.69-3.91-8.11,0-16.62.07-25.51.2-8.9.13-17.6.2-26.1.2h-23.35l-22.77-42.26c9.42-.78,19.75-1.5,31.01-2.15,11.25-.65,22.77-1.11,34.54-1.37,11.78-.26,23.16-.39,34.15-.39ZM864.26,4.29l-38,269.47h-59.93L804.33,4.29h59.93Z"/>
      <path class="cls-1" d="M1103.13,81.08l.39,46.02,5.09,5.46-19.56,141.19h-57.9l26.99-192.67h44.99ZM1196.69,75.5l-12.43,53.06h-13.98c-9.07,0-18.84,2-29.33,6-10.49,4.01-23.63,10.01-39.43,18.01l-2.33-33.69c15.28-14.2,30.17-24.98,44.67-32.34,14.5-7.36,28.22-11.04,41.18-11.04h11.65Z"/>
      <path class="cls-1" d="M1313.38,75.72c23.81,0,42.19,2.54,55.15,7.63,12.95,5.09,21.65,12.66,26.1,22.7,4.45,10.05,5.49,22.37,3.14,36.98-1.83,12-5.83,21.46-11.97,28.37-6.15,6.92-14.59,12.07-25.32,15.46-10.73,3.39-24.34,5.74-40.82,7.04l-98.91,8.22,4.32-32.09,83.21-8.22c7.07-.78,12.89-1.89,17.47-3.33,4.58-1.43,8.18-3.78,10.79-7.04,2.61-3.26,4.32-7.89,5.1-13.89,1.04-6.26.65-10.96-1.18-14.09-1.83-3.13-5.1-5.15-9.81-6.07-4.71-.91-10.99-1.24-18.84-.98-8.11,0-14.92.78-20.41,2.35-5.49,1.57-10.08,4.37-13.74,8.41-3.67,4.05-6.67,9.78-9.03,17.22-2.36,7.43-4.58,17.02-6.67,28.76-2.62,16.96-3.01,29.74-1.18,38.35,1.83,8.61,5.89,14.35,12.17,17.22,6.28,2.87,15.04,4.3,26.3,4.3,6.28,0,13.87-.2,22.77-.59,8.89-.39,17.99-.91,27.28-1.57,9.28-.65,17.72-1.37,25.32-2.15l3.93,36c-7.85,3.39-16.75,6.13-26.69,8.22-9.95,2.08-20.02,3.58-30.22,4.5-10.2.91-19.76,1.37-28.65,1.37-25.91,0-45.99-3.91-60.25-11.74-14.27-7.83-23.75-19.5-28.46-35.02-4.71-15.52-5.76-34.63-3.14-57.33,2.36-20.09,6.34-36.52,11.97-49.31,5.62-12.78,12.95-22.76,21.98-29.94,9.03-7.17,20.08-12.26,33.17-15.26,13.08-3,28.13-4.5,45.14-4.5Z"/>
      <path class="cls-1" d="M1536.32,75.72c6.8,0,14.45.33,22.96.98,8.5.65,17.14,1.5,25.91,2.54,8.76,1.05,17.01,2.22,24.73,3.52,7.71,1.31,14.06,2.61,19.04,3.91l-39.64,31.31c-10.47-.52-20.02-.84-28.65-.98-8.64-.13-16.75-.2-24.34-.2-8.64,0-15.96.65-21.98,1.96-6.02,1.31-10.99,3.85-14.92,7.63-3.92,3.79-7.2,9.46-9.81,17.02-2.62,7.57-4.84,17.74-6.67,30.52-2.36,16.18-3.6,28.51-3.73,36.98-.13,8.48,1.37,14.28,4.51,17.41s8.11,4.57,14.91,4.3c7.07-.26,14.46-2.6,22.18-7.04,7.71-4.43,15.37-10.5,22.96-18.2,7.59-7.69,14.92-16.37,21.98-26.02l10.2,18.78c-5.24,15.4-12.63,28.9-22.18,40.5-9.56,11.61-20.74,20.68-33.56,27.2-12.82,6.52-27.08,10.17-42.78,10.96-17.01.78-30.03-2.61-39.05-10.17-9.03-7.56-14.59-19.3-16.68-35.22-2.1-15.91-1.31-35.87,2.36-59.87,3.4-22.17,8.17-39.85,14.33-53.02,6.15-13.17,13.93-22.95,23.35-29.35,9.42-6.39,20.34-10.57,32.77-12.52,12.43-1.96,26.36-2.93,41.8-2.93ZM1571.65,82.79l57.31,3.52-26.3,187.44h-45.14l.79-43.83-7.07-4.7,20.41-142.44Z"/>
      <path class="cls-1" d="M1721.95,81.08l.39,44.46,5.09,5.46-19.95,142.75h-57.51l26.99-192.67h44.99ZM1798.9,75.36c18.06,0,31.2,4.83,39.45,14.48,8.24,9.65,11.19,23.09,8.83,40.31l-20.41,143.61h-55.74l18.06-127.96c1.04-7.83.39-13.37-1.96-16.63-2.36-3.26-6.81-4.89-13.35-4.89-4.71,0-9.68,1.05-14.92,3.13-5.24,2.09-11.12,5.42-17.66,9.98-6.54,4.57-14.52,10.9-23.94,18.98l-7.06-28.96c16.22-18,31.27-31.17,45.14-39.52,13.87-8.35,28.39-12.52,43.57-12.52ZM1919.8,75.36c18.31,0,31.66,4.89,40.04,14.67,8.37,9.78,11.25,23.15,8.64,40.11l-20.02,143.61h-57.7l18.06-127.96c1.04-8.35.2-14.02-2.55-17.02-2.75-3-7-4.5-12.76-4.5-4.45,0-9.22.98-14.33,2.93-5.1,1.96-10.86,5.22-17.27,9.78-6.41,4.57-14.07,10.9-22.96,18.98l-7.46-28.57c16.22-18.26,31.2-31.5,44.94-39.72,13.74-8.22,28.19-12.33,43.37-12.33Z"/>
      <path class="cls-1" d="M2174.95,3.11c21.41,0,42.96.2,64.64.59,21.67.39,41.39,1.76,59.15,4.1l-7.05,42.57h-95.58c-8.36,0-14.49,1.5-18.41,4.49-3.92,3-6.4,8.53-7.44,16.6l-28.6,202.3h-59.94l30.16-216.75c2.61-16.92,9.53-30.13,20.76-39.64,11.23-9.5,25.33-14.26,42.31-14.26ZM2109.41,117.38h158.94l-5.55,41.89h-159.33l5.95-41.89Z"/>
      <path class="cls-1" d="M2409.63,75.72c6.8,0,14.46.33,22.96.98,8.5.65,17.14,1.5,25.91,2.54,8.76,1.05,17.01,2.22,24.73,3.52,7.72,1.31,14.06,2.61,19.04,3.91l-39.64,31.31c-10.47-.52-20.02-.84-28.65-.98-8.64-.13-16.75-.2-24.34-.2-8.64,0-15.96.65-21.98,1.96-6.02,1.31-10.99,3.85-14.91,7.63-3.93,3.79-7.2,9.46-9.81,17.02-2.62,7.57-4.85,17.74-6.67,30.52-2.35,16.18-3.6,28.51-3.73,36.98-.14,8.48,1.37,14.28,4.51,17.41,3.14,3.13,8.11,4.57,14.91,4.3,7.07-.26,14.46-2.6,22.18-7.04,7.72-4.43,15.37-10.5,22.96-18.2,7.59-7.69,14.91-16.37,21.98-26.02l10.21,18.78c-5.24,15.4-12.63,28.9-22.18,40.5-9.56,11.61-20.74,20.68-33.56,27.2-12.82,6.52-27.08,10.17-42.78,10.96-17.01.78-30.03-2.61-39.05-10.17-9.03-7.56-14.59-19.3-16.68-35.22-2.1-15.91-1.31-35.87,2.35-59.87,3.4-22.17,8.18-39.85,14.33-53.02,6.15-13.17,13.93-22.95,23.35-29.35,9.42-6.39,20.34-10.57,32.78-12.52,12.42-1.96,26.36-2.93,41.8-2.93ZM2444.96,82.79l57.31,3.52-26.3,187.44h-45.14l.79-43.83-7.07-4.7,20.41-142.44Z"/>
      <path class="cls-1" d="M2634.93,75.72c12.3,0,25.38.98,39.25,2.93,13.87,1.96,26.03,5.15,36.5,9.59l-8.24,35.61c-11.52-.52-22.51-.84-32.97-.98-10.47-.13-19.37-.2-26.69-.2-11.52,0-20.94,1.56-28.26,4.7-7.33,3.13-12.95,8.68-16.88,16.63-3.92,7.96-6.81,19.11-8.64,33.46-2.1,15.13-2.35,26.61-.78,34.44,1.57,7.83,5.43,13.18,11.58,16.04,6.15,2.87,14.85,4.3,26.1,4.3,4.71,0,10.4-.13,17.07-.39,6.67-.26,13.93-.59,21.78-.98,7.85-.39,15.44-1.11,22.77-2.15l3.92,37.57c-11.25,4.44-23.62,7.63-37.09,9.59-13.48,1.96-26.36,2.93-38.66,2.93-22.76,0-41.21-3.46-55.34-10.37-14.13-6.91-23.88-18-29.24-33.26-5.37-15.26-6.35-35.28-2.94-60.07,3.66-24,9.35-43.24,17.07-57.72,7.72-14.48,18.84-25.04,33.36-31.7,14.52-6.65,33.3-9.98,56.33-9.98Z"/>
      <path class="cls-1" d="M2878.94,81.08l-5.46,37.7h-145.01l4.68-35.75,37.42-1.94h108.37ZM2833,28.02l-26.58,185.53c-1.04,7.02-.39,11.83,1.96,14.42,2.35,2.6,7.29,3.9,14.86,3.9h26.19l2.74,39.37c-4.95,1.56-10.88,2.92-17.79,4.09-6.91,1.17-13.62,2.01-20.14,2.53-6.52.52-11.86.78-16.03.78-17.98,0-31.61-4.87-40.85-14.62-9.26-9.74-12.58-22.93-9.97-39.56l28.54-196.44h57.08Z"/>
      <path class="cls-1" d="M2999.95,75.72c23.81,0,42.91,3.46,57.31,10.37,14.39,6.92,24.14,17.94,29.24,33.07,5.1,15.13,5.82,35.48,2.16,61.04-3.4,24.26-9.22,43.63-17.47,58.11-8.24,14.48-19.82,24.85-34.74,31.11-14.91,6.26-34.28,9.39-58.09,9.39s-42.59-3.39-57.11-10.17c-14.52-6.78-24.47-17.74-29.83-32.87-5.37-15.13-6.35-35.22-2.94-60.26,3.66-24.52,9.55-44.02,17.66-58.5,8.11-14.48,19.82-24.98,35.13-31.5,15.31-6.52,34.86-9.78,58.68-9.78ZM2999.17,117.98c-10.47,0-18.91,1.7-25.32,5.09-6.41,3.39-11.52,9.53-15.31,18.39-3.8,8.87-6.87,21.78-9.22,38.74-2.1,14.87-2.69,26.48-1.77,34.83.91,8.35,3.99,14.09,9.22,17.22,5.23,3.13,12.95,4.7,23.16,4.7s18.84-1.76,25.12-5.28c6.28-3.52,11.25-9.72,14.91-18.59,3.66-8.87,6.67-21.39,9.03-37.57,2.09-15.39,2.68-27.2,1.77-35.41-.92-8.22-3.92-13.95-9.03-17.22-5.1-3.26-12.63-4.89-22.57-4.89Z"/>
      <path class="cls-1" d="M3186.39,81.08l.39,46.02,5.09,5.46-19.56,141.19h-57.9l26.99-192.67h44.99ZM3281.26,75.5l-12.43,53.06h-13.98c-9.07,0-18.84,2-29.33,6-10.49,4.01-23.63,10.01-39.43,18.01l-2.33-33.69c15.28-14.2,30.16-24.98,44.67-32.34,14.5-7.36,28.22-11.04,41.18-11.04h11.65Z"/>
      <path class="cls-1" d="M3351.27,81.08l16.45,148.34c.78,4.43,3.39,6.64,7.83,6.64h21.96l-15.59,37.7h-39.79c-6,0-11.09-1.82-15.26-5.46-4.18-3.64-6.79-8.19-7.82-13.65l-30.51-173.56h62.74ZM3500,81.08c-2.1,12.78-4.91,25.83-8.44,39.13-3.53,13.3-7.53,26.48-11.97,39.52-4.45,13.05-9.1,25.5-13.93,37.37-4.84,11.87-9.68,22.89-14.52,33.07-4.84,10.17-9.62,19.17-14.33,27-13.09,22.43-26.69,40.7-40.82,54.78-14.13,14.09-29.31,24.52-45.53,31.31-16.23,6.78-34.02,10.69-53.38,11.74l-5.89-34.04c9.68-2.87,18.84-6.07,27.47-9.59s16.94-8.16,24.92-13.89c7.98-5.74,15.76-13.5,23.35-23.28,7.59-9.78,15.17-22.37,22.76-37.76,7.85-15.39,14.72-30.78,20.61-46.18,5.89-15.39,11.12-31.95,15.7-49.7,4.58-17.74,8.7-37.57,12.36-59.48h61.62Z"/>
    </g>
  </g>
</svg>