<svg class="helpbubbles" xmlns="http://www.w3.org/2000/svg" version="1.1" viewBox="0 0 2048 2048"><circle fill="currentColor" cx="1453.5" cy="1097.8" r="78.5"/>
  <circle fill="currentColor" cx="1253.8" cy="817.3" r="131.6"/>
  <circle fill="currentColor" cx="1982.2" cy="772.2" r="65.8"/>
  <path fill="currentColor" d="M879.3,1017.5c-106.5-106.5-279.2-106.5-385.7,0-106.5,106.5-106.5,279.2,0,385.7,106.5,106.5,279.2,106.5,385.7,0,106.5-106.5,106.5-279.2,0-385.7ZM824,1363c-10.5,10.5-27.5,10.5-38,0-10.5-10.5-10.5-27.5,0-38s27.5-10.5,38,0c10.5,10.5,10.5,27.5,0,38Z"/>
  <circle fill="currentColor" cx="228.9" cy="1657.6" r="101.8"/>
  <circle fill="currentColor" cx="139.7" cy="773.6" r="78.5"/>
  <circle fill="currentColor" cx="37" cy="1150.2" r="37"/>
  <path fill="currentColor" d="M860.6,350.3c-82.2-82.2-215.5-82.2-297.7,0-82.2,82.2-82.2,215.5,0,297.7,82.2,82.2,215.5,82.2,297.7,0s82.2-215.5,0-297.7ZM652,421c-8,8-20.9,8-28.8,0-8-8-8-20.9,0-28.8s20.9-8,28.8,0c8,8,8,20.9,0,28.8Z"/>
  <path fill="currentColor" d="M1756.1,639.2c-39.7-39.7-104.2-39.7-143.9,0-39.7,39.7-39.7,104.2,0,143.9,39.7,39.7,104.2,39.7,143.9,0,39.7-39.7,39.7-104.2,0-143.9ZM1748.6,685.8c-7.6,7.6-19.9,7.6-27.5,0-7.6-7.6-7.6-19.9,0-27.5,7.6-7.6,19.9-7.6,27.5,0,7.6,7.6,7.6,19.9,0,27.5Z"/>
</svg>