<?xml version="1.0" encoding="UTF-8"?>
<svg id="Layer_2" data-name="Layer 2" xmlns="http://www.w3.org/2000/svg" viewBox="0 0 29 59">
  <defs>
    <style>
      .cls-1 {
        fill: none;
        stroke: #ddd;
        stroke-miterlimit: 10;
      }

      .cls-2 {
        fill: #fff;
      }

      .cls-3 {
        fill: #333;
      }
    </style>
  </defs>
  <g id="Layer_1-2" data-name="Layer 1">
    <g id="help-zoom">
      <path id="help-zoom_background-zoomin" class="cls-2" d="M4,0h21c2.21,0,4,1.79,4,4v25H0V4C0,1.79,1.79,0,4,0Z"/>
      <line id="help-zoom_background-divider" class="cls-1" x1="29" y1="29.5" y2="29.5"/>
      <path id="help-zoom_background-zoomout" class="cls-2" d="M0,30h29v25c0,2.21-1.79,4-4,4H4c-2.21,0-4-1.79-4-4v-25h0Z"/>
      <path id="help-zoom_icon-zoomin" class="cls-3" d="M14.5,8.5c-.75,0-1.5.75-1.5,1.5v3h-3c-.75,0-1.5.75-1.5,1.5s.75,1.5,1.5,1.5h3v3c0,.75.75,1.5,1.5,1.5s1.5-.75,1.5-1.5v-3h3c.75,0,1.5-.75,1.5-1.5s-.75-1.5-1.5-1.5h-3v-3c0-.75-.75-1.5-1.5-1.5Z"/>
      <path id="help-zoom_icon-zoomout" class="cls-3" d="M10,43c-.75,0-1.5.75-1.5,1.5s.75,1.5,1.5,1.5h9c.75,0,1.5-.75,1.5-1.5s-.75-1.5-1.5-1.5h-9Z"/>
    </g>
  </g>
</svg>