<?xml version="1.0" encoding="UTF-8"?>
<svg id="Layer_1" xmlns="http://www.w3.org/2000/svg" viewBox="0 0 64 64">
  <defs>
    <style>
      .cls-1 {
        fill: #ffc60a;
      }

      .cls-2 {
        fill: #eeeffc;
      }

      .cls-3 {
        fill: #333;
      }
    </style>
  </defs>
  <g id="shark-icon-inactive">
    <circle id="shark-icon-background" class="cls-2" cx="32" cy="32" r="28"/>
    <g id="shark-icon">
      <path class="cls-3" d="M32.43,26.82h0,0M59.28,29.89h0,0M30.09,21.57s-.09,0-.15.02c-.35.1-.72.22-1.03.41-.78.49-1.32,1.21-1.81,1.98-.41.64-.82,1.29-1.25,1.92-.23.34-.56.54-.98.56-.26.01-.53.03-.79.06-1.66.21-3.33.38-4.98.64-3.32.52-6.6,1.22-9.73,2.47-.84.33-1.67.72-2.47,1.14-.48.26-.5.68-.06,1.01.45.34.94.66,1.46.88.41.18.85.26,1.29.26.28,0,.57-.04.85-.11.25-.06.49-.13.74-.17.52-.09,1.05-.16,1.58-.24,0,.03.01.06.02.1-.15.04-.31.08-.46.13-.65.19-1.31.37-1.95.59-.35.12-.38.52-.07.73.15.1.31.19.48.25,1.44.52,2.93.87,4.45,1.04.75.08,1.51.12,2.25.24,1.27.21,2.54.46,3.81.7.11.02.24.1.29.19.74,1.19,1.59,2.31,2.53,3.35,1.25,1.39,2.8,2.27,4.64,2.62.06.01.12.02.17.02.18,0,.34-.06.47-.22.17-.2.14-.44.02-.64-.2-.34-.42-.65-.64-.98-.56-.85-1.15-1.68-1.68-2.55-.27-.44-.46-.92-.71-1.43.08,0,.14,0,.18,0,.02,0,.04,0,.06,0,.95.05,1.91.11,2.86.14.24,0,.48.01.72.01,1.57,0,3.14-.18,4.69-.41.26-.04.52-.07.77-.07.53,0,1.02.12,1.47.51.05.04.1.08.15.12.46.32.95.58,1.51.67.08.01.15.02.21.02.37,0,.53-.21.5-.66-.02-.31-.09-.61-.14-.92-.04-.26.06-.42.34-.49.73-.19,1.46-.39,2.18-.62.22-.07.42-.11.62-.11.22,0,.44.05.69.18.25.14.45.21.61.21.3,0,.47-.25.62-.77.05-.19.14-.29.33-.33,1.28-.21,2.56-.44,3.85-.63.04,0,.08,0,.12,0,.32,0,.6.19.83.45.72.79,1.43,1.6,2.19,2.35.91.89,1.98,1.54,3.23,1.86.26.07.53.12.8.12h0c.38,0,.57-.33.4-.67-.11-.22-.26-.42-.42-.6-.99-1.16-1.73-2.45-2.12-3.93-.04-.14-.04-.31-.01-.45.38-1.92,1.19-3.66,2.27-5.28.05-.08.12-.16.17-.23.16.06.28.1.36.1.14,0,.2-.09.21-.29.05-.75.3-1.43.7-2.07.06-.1.06-.29,0-.39-.02-.04-.1-.05-.19-.05-.06,0-.12,0-.17.03-2.4.98-4.46,2.43-6.11,4.45-.51.62-1.05,1.21-1.58,1.81-.2.23-.44.35-.74.35-.05,0-.11,0-.16-.01-1.6-.23-3.21-.44-4.81-.66-.17-.02-.24-.11-.24-.27,0-.1,0-.2.03-.3.06-.26.02-.39-.19-.39-.04,0-.08,0-.13.01-.43.07-.84.21-1.26.31-.1.02-.2.05-.3.05-.04,0-.07,0-.11-.01-1.31-.36-2.6-.76-3.91-1.09-1.71-.43-3.43-.81-5.15-1.21-.6-.14-1.03-.5-1.29-1.04-.14-.29-.19-.62-.26-.94-.27-1.15-.42-2.31-.47-3.48,0-.23-.08-.35-.25-.35h0Z"/>
    </g>
    <circle id="light-inactive" class="cls-1" cx="52" cy="52" r="8"/>
  </g>
</svg>