<?xml version="1.0" encoding="UTF-8"?>
<svg id="Layer_2" data-name="Layer 2" xmlns="http://www.w3.org/2000/svg" viewBox="0 0 3150 600">
  <defs>
    <style>
      .cls-1 {
        fill: #d0d2d3;
      }

      .cls-2 {
        fill: #131415;
      }

      .cls-3 {
        fill: #f6f8f9;
      }
    </style>
  </defs>
  <g id="Logos">
    <g id="TDF_Logo_Standard" data-name="TDF Logo Standard">
      <g>
        <path class="cls-3" d="M569,405.99c0-47.96-20.99-93.28-57.58-124.35l-16.85-14.31,7.78-20.69c6.74-17.92,10.16-36.82,10.16-56.16,0-42.6-16.58-82.65-46.69-112.78-30.11-30.12-70.14-46.71-112.72-46.71s-82.61,16.59-112.72,46.71c-30.11,30.12-46.69,70.17-46.69,112.78,0,6.54.4,13.15,1.2,19.62l3.69,30.15-30.01,4.69c-37.94,5.93-72.74,25.3-98,54.57-12.51,14.49-22.28,30.87-29.03,48.68-6.99,18.43-10.53,37.87-10.53,57.79,0,43.54,16.95,84.48,47.73,115.27,30.77,30.79,71.69,47.74,115.21,47.74,31.73,0,62.47-9.12,88.9-26.38l17.17-11.21,17.17,11.21c26.43,17.26,57.18,26.38,88.9,26.38,43.52,0,84.43-16.95,115.21-47.74,30.78-30.79,47.73-71.72,47.73-115.27Z"/>
        <path class="cls-1" d="M531.43,257.76c7.85-20.88,12.15-43.5,12.15-67.13C543.59,85.35,458.27,0,353.03,0s-190.56,85.35-190.56,190.63c0,7.93.49,15.74,1.43,23.41C71.04,228.54,0,308.9,0,405.85c0,107.23,86.89,194.15,194.07,194.15,39.08,0,75.47-11.56,105.93-31.45,30.46,19.89,66.84,31.45,105.93,31.45,107.18,0,194.07-86.92,194.07-194.15,0-59.35-26.62-112.48-68.57-148.09ZM317.14,542.3l-17.14-11.19-17.14,11.19c-26.4,17.23-57.1,26.34-88.78,26.34-43.46,0-84.32-16.93-115.05-47.68-30.74-30.75-47.66-71.63-47.66-115.11,0-19.9,3.54-39.31,10.51-57.72,6.74-17.78,16.5-34.14,28.99-48.62,25.23-29.22,59.98-48.58,97.87-54.49l29.97-4.68-3.69-30.11c-.79-6.47-1.19-13.06-1.19-19.6,0-42.55,16.56-82.54,46.63-112.63,30.07-30.08,70.04-46.65,112.57-46.65s82.5,16.57,112.57,46.65c30.07,30.08,46.63,70.08,46.63,112.63,0,19.32-3.41,38.19-10.15,56.09l-7.77,20.66,16.83,14.29c36.54,31.03,57.5,76.29,57.5,124.18,0,43.48-16.93,84.37-47.66,115.11-30.73,30.74-71.59,47.68-115.05,47.68-31.68,0-62.38-9.11-88.78-26.34Z"/>
      </g>
      <g>
        <g>
          <polygon class="cls-2" points="841 114 784.02 114 741.64 114 684.7 114 680 146.83 736.97 146.83 714.77 303 757.15 303 779.35 146.83 836.57 146.83 841 114"/>
          <path class="cls-2" d="M976.87,173.68c-6.18-6.59-15.62-9.88-28.35-9.88-10.14,0-20.79,2.98-31.94,8.92-8.57,4.57-17.49,11.06-26.76,19.46.77-2.52,1.57-5.25,2.4-8.22,2.3-8.23,4.01-16.64,5.11-25.23l6.63-47.73h-40.89l-27.07,192h40.89l11.57-83.99c8.71-6.73,16.21-11.83,22.45-15.27,6.82-3.75,13.55-5.63,20.19-5.63,4.42,0,7.37,1.06,8.85,3.16,1.47,2.11,1.84,6.09,1.11,11.94l-13,89.79h40.93l14.38-100.77c1.84-12.45-.32-21.97-6.5-28.56Z"/>
          <path class="cls-2" d="M1084.42,163c16.85,0,29.86,1.79,39.02,5.37,9.17,3.58,15.32,8.91,18.47,15.98,3.15,7.07,3.89,15.75,2.22,26.04-1.3,8.45-4.12,15.11-8.47,19.98-4.35,4.87-10.32,8.5-17.91,10.88-7.59,2.39-17.22,4.04-28.88,4.96l-69.99,5.79,3.06-22.59,58.88-5.79c5-.55,9.12-1.33,12.36-2.34,3.24-1.01,5.78-2.66,7.64-4.96,1.85-2.29,3.06-5.55,3.61-9.78.74-4.41.46-7.71-.83-9.92-1.3-2.2-3.61-3.63-6.94-4.27-3.33-.64-7.78-.87-13.33-.69-5.74,0-10.55.55-14.44,1.65-3.89,1.1-7.13,3.08-9.72,5.92-2.59,2.85-4.72,6.89-6.39,12.12-1.67,5.23-3.24,11.99-4.72,20.25-1.85,11.94-2.13,20.94-.83,27,1.29,6.06,4.17,10.1,8.61,12.12,4.44,2.02,10.64,3.03,18.61,3.03,4.44,0,9.81-.14,16.11-.41,6.29-.28,12.73-.64,19.3-1.1,6.57-.46,12.54-.96,17.91-1.52l2.78,25.35c-5.55,2.39-11.85,4.32-18.89,5.79-7.04,1.47-14.16,2.52-21.39,3.17-7.22.64-13.98.96-20.27.96-18.33,0-32.54-2.76-42.63-8.27-10.09-5.51-16.8-13.73-20.14-24.66-3.33-10.93-4.07-24.38-2.22-40.37,1.67-14.14,4.49-25.71,8.47-34.72,3.98-9,9.16-16.02,15.55-21.08,6.39-5.05,14.21-8.63,23.47-10.75,9.26-2.11,19.9-3.17,31.94-3.17Z"/>
          <path class="cls-2" d="M1388.82,149.41c-4.05-14.37-12.02-24.53-23.9-30.49-11.88-5.95-27.86-8.93-47.94-8.93-7.74,0-15.75.09-24.04.27-8.29.18-16.4.51-24.31.96-7.92.46-15.2.96-21.83,1.51l.43.8h-.42l-26.65,188.45-.17.25s.09,0,.13,0l-.05.36h5.86c9.62.58,19.6,1.1,29.98,1.56,12.52.55,25.42.82,38.68.82,15.1,0,28.09-1.37,38.96-4.12,10.87-2.75,19.89-7.55,27.08-14.42,7.18-6.87,13.08-16.57,17.68-29.11,4.6-12.54,8.29-28.61,11.05-48.2,3.68-25.45,3.5-45.36-.55-59.74ZM1345.16,205.85c-1.84,14.1-4.1,25.5-6.77,34.19-2.67,8.7-5.99,15.43-9.95,20.19-3.96,4.76-8.75,8.01-14.37,9.75-5.62,1.74-12.3,2.61-20.03,2.61-8.63,0-17.8-.13-27.49-.4l18.36-129.81c4.18-.02,8.41-.05,12.72-.12,6.26-.09,12.25-.14,17.96-.14,7.74,0,14,.92,18.79,2.75,4.79,1.83,8.24,5.04,10.36,9.61,2.12,4.58,3.18,11.03,3.18,19.36s-.92,19-2.76,32Z"/>
          <path class="cls-2" d="M1514.89,164c-9.02,0-18.57,2.55-28.66,7.64-9.22,4.65-18.65,11.3-28.32,19.89l-.2-23.56h-31.69l-19.02,135.03h40.79l12.15-87.22c9.58-4.75,17.68-8.38,24.27-10.88,7.3-2.77,14.1-4.16,20.41-4.16h9.73l8.65-36.74h-8.11Z"/>
          <path class="cls-2" d="M1606.42,163c16.85,0,29.86,1.79,39.02,5.37,9.17,3.58,15.32,8.91,18.47,15.98,3.15,7.07,3.89,15.75,2.22,26.04-1.3,8.45-4.12,15.11-8.47,19.98-4.35,4.87-10.32,8.5-17.91,10.88-7.59,2.39-17.22,4.04-28.88,4.96l-69.99,5.79,3.06-22.59,58.88-5.79c5-.55,9.12-1.33,12.36-2.34,3.24-1.01,5.78-2.66,7.64-4.96,1.85-2.29,3.06-5.55,3.61-9.78.74-4.41.46-7.71-.83-9.92-1.3-2.2-3.61-3.63-6.94-4.27-3.33-.64-7.78-.87-13.33-.69-5.74,0-10.55.55-14.44,1.65-3.89,1.1-7.13,3.08-9.72,5.92-2.59,2.85-4.72,6.89-6.39,12.12-1.67,5.23-3.24,11.99-4.72,20.25-1.85,11.94-2.13,20.94-.83,27,1.29,6.06,4.17,10.1,8.61,12.12,4.44,2.02,10.64,3.03,18.61,3.03,4.44,0,9.81-.14,16.11-.41,6.29-.28,12.73-.64,19.3-1.1,6.57-.46,12.54-.96,17.91-1.52l2.78,25.35c-5.55,2.39-11.85,4.32-18.89,5.79-7.04,1.47-14.16,2.52-21.39,3.17-7.22.64-13.98.96-20.27.96-18.33,0-32.54-2.76-42.63-8.27-10.09-5.51-16.8-13.73-20.14-24.66-3.33-10.93-4.07-24.38-2.22-40.37,1.67-14.14,4.49-25.71,8.47-34.72,3.98-9,9.16-16.02,15.55-21.08,6.39-5.05,14.21-8.63,23.47-10.75,9.26-2.11,19.9-3.17,31.94-3.17Z"/>
          <path class="cls-2" d="M1829.11,170.71l.02-.14-.76-.05c-3.39-.85-7.62-1.71-12.68-2.56-5.45-.92-11.27-1.74-17.46-2.48-6.19-.73-12.29-1.33-18.29-1.79-6.01-.46-11.41-.69-16.21-.69-10.9,0-20.74.69-29.51,2.07-8.78,1.38-16.49,4.32-23.14,8.81-6.65,4.5-12.15,11.39-16.49,20.65-4.34,9.27-7.72,21.71-10.11,37.31-2.59,16.89-3.14,30.94-1.66,42.13,1.48,11.2,5.4,19.46,11.78,24.78,6.37,5.32,15.56,7.71,27.57,7.16,11.08-.55,21.15-3.12,30.21-7.71,9.05-4.59,16.95-10.97,23.69-19.14,1.09-1.32,2.12-2.68,3.13-4.07l-.49,27.47h31.87l18.54-131.75.02-.02s-.01,0-.02,0ZM1769,255.67c-5.36,5.42-10.76,9.69-16.21,12.81-5.45,3.12-10.67,4.78-15.66,4.96-4.81.19-8.31-.83-10.53-3.03-2.22-2.2-3.28-6.29-3.19-12.26.09-5.96.97-14.64,2.63-26.02,1.29-8.99,2.86-16.15,4.71-21.48,1.84-5.32,4.16-9.32,6.93-11.98,2.77-2.66,6.28-4.45,10.53-5.37,4.25-.92,9.42-1.38,15.52-1.38,5.36,0,11.08.05,17.18.14,1.4.02,2.84.05,4.3.09l-7.8,54.26c-2.75,3.28-5.56,6.37-8.42,9.26Z"/>
          <path class="cls-2" d="M2062.25,174.28c-5.91-6.85-15.32-10.28-28.23-10.28-10.7,0-20.9,2.88-30.59,8.64-6.44,3.83-13.27,9.22-20.49,16.16-.84-5.79-2.95-10.68-6.36-14.65-5.81-6.76-15.09-10.14-27.82-10.14-10.7,0-20.95,2.93-30.72,8.77-7.23,4.32-14.9,10.49-23.03,18.5l-.21-23.37h-31.75l-19.05,135.09h40.59l12.23-86.94c4.25-3.47,8.01-6.35,11.26-8.6,4.61-3.2,8.76-5.53,12.46-6.99,3.69-1.46,7.2-2.19,10.52-2.19,4.61,0,7.75,1.14,9.41,3.43,1.66,2.29,2.12,6.17,1.38,11.65l-12.73,89.65h39.3l12.27-85.8c4.72-4.12,8.89-7.47,12.5-10.02,4.52-3.2,8.58-5.48,12.18-6.85,3.6-1.37,6.96-2.06,10.1-2.06,4.06,0,7.06,1.05,9,3.15,1.94,2.1,2.53,6.08,1.8,11.93l-12.73,89.65h40.69l14.12-100.62c1.84-11.88-.19-21.25-6.09-28.1Z"/>
          <path class="cls-2" d="M2216.1,149.33c2.78-2.1,7.13-3.15,13.07-3.15h67.83l5-29.88c-12.6-1.64-26.59-2.6-41.97-2.88-15.38-.27-30.67-.41-45.87-.41-12.05,0-22.06,3.34-30.02,10.01-7.97,6.67-12.88,15.95-14.73,27.83l-21.4,152.16h42.53l11.49-80.4h75.18l3.99-29.78h-74.91l4.55-31.85c.74-5.66,2.5-9.55,5.28-11.65Z"/>
          <path class="cls-2" d="M2444.98,170.71l.02-.14-.76-.05c-3.39-.85-7.61-1.71-12.67-2.56-5.45-.92-11.26-1.74-17.44-2.48-6.19-.73-12.28-1.33-18.27-1.79-6-.46-11.4-.69-16.2-.69-10.89,0-20.72.69-29.49,2.07-8.77,1.38-16.47,4.32-23.12,8.81-6.64,4.5-12.14,11.39-16.47,20.65-4.34,9.27-7.71,21.71-10.11,37.31-2.59,16.89-3.14,30.94-1.66,42.13,1.48,11.2,5.4,19.46,11.77,24.78,6.37,5.32,15.55,7.71,27.55,7.16,11.08-.55,21.13-3.12,30.18-7.71,9.04-4.59,16.93-10.97,23.67-19.14,1.09-1.32,2.12-2.68,3.12-4.07l-.49,27.47h31.84l18.53-131.75.02-.02s-.01,0-.02,0ZM2384.92,255.67c-5.36,5.42-10.75,9.69-16.2,12.81-5.45,3.12-10.66,4.78-15.64,4.96-4.8.19-8.31-.83-10.52-3.03-2.22-2.2-3.28-6.29-3.18-12.26.09-5.96.97-14.64,2.63-26.02,1.29-8.99,2.86-16.15,4.71-21.48,1.84-5.32,4.15-9.32,6.92-11.98,2.77-2.66,6.27-4.45,10.52-5.37,4.24-.92,9.41-1.38,15.5-1.38,5.35,0,11.08.05,17.17.14,1.4.02,2.83.05,4.3.09l-7.79,54.26c-2.75,3.28-5.55,6.37-8.41,9.26Z"/>
          <path class="cls-2" d="M2538.62,163c8.66,0,17.88.69,27.66,2.07,9.77,1.38,18.34,3.63,25.72,6.75l-5.81,25.07c-8.12-.37-15.86-.59-23.23-.69-7.38-.09-13.65-.14-18.81-.14-8.12,0-14.75,1.1-19.91,3.31-5.16,2.2-9.13,6.11-11.89,11.71-2.77,5.61-4.8,13.46-6.08,23.56-1.48,10.66-1.66,18.74-.55,24.25,1.11,5.51,3.82,9.28,8.16,11.3,4.33,2.02,10.46,3.03,18.39,3.03,3.32,0,7.33-.09,12.03-.28,4.7-.18,9.82-.41,15.35-.69,5.53-.28,10.88-.78,16.04-1.52l2.77,26.45c-7.93,3.13-16.64,5.37-26.14,6.75-9.5,1.38-18.58,2.07-27.24,2.07-16.04,0-29.04-2.44-39-7.3-9.96-4.86-16.83-12.67-20.6-23.42-3.78-10.75-4.47-24.84-2.07-42.29,2.58-16.9,6.59-30.45,12.03-40.64,5.44-10.19,13.28-17.63,23.51-22.32,10.23-4.68,23.46-7.03,39.69-7.03Z"/>
          <path class="cls-2" d="M2669.41,194.62h38.67l3.92-26.84h-38.71l5.46-37.78h-40.41l-5.54,37.85-25.44,1.31-3.36,25.46h24.88l-10.74,73.34c-1.85,11.68.51,20.94,7.06,27.78,6.55,6.84,16.19,10.26,28.92,10.26,2.95,0,6.73-.18,11.35-.55,4.61-.37,9.36-.96,14.25-1.78,4.89-.82,9.09-1.78,12.59-2.87l-1.94-27.65h-18.54c-5.35,0-8.86-.91-10.52-2.74-1.66-1.82-2.12-5.2-1.38-10.13l9.49-65.67Z"/>
          <path class="cls-2" d="M2796.91,163c16.77,0,30.22,2.44,40.36,7.3,10.13,4.87,17,12.63,20.6,23.28,3.59,10.66,4.1,24.98,1.52,42.98-2.4,17.08-6.5,30.72-12.3,40.92-5.81,10.19-13.96,17.5-24.47,21.9-10.5,4.41-24.15,6.61-40.91,6.61s-29.99-2.39-40.22-7.16c-10.23-4.77-17.23-12.49-21.01-23.14-3.78-10.65-4.47-24.8-2.07-42.43,2.58-17.26,6.73-31,12.44-41.19,5.71-10.19,13.96-17.59,24.74-22.18,10.78-4.59,24.56-6.89,41.33-6.89ZM2796.35,192.76c-7.37,0-13.32,1.2-17.83,3.58-4.52,2.39-8.11,6.71-10.78,12.95-2.67,6.25-4.84,15.34-6.5,27.28-1.48,10.47-1.89,18.65-1.24,24.52.64,5.88,2.81,9.92,6.5,12.12,3.68,2.2,9.12,3.31,16.31,3.31s13.27-1.24,17.69-3.72c4.42-2.48,7.92-6.84,10.5-13.09,2.58-6.24,4.7-15.06,6.36-26.45,1.47-10.84,1.89-19.15,1.24-24.94-.65-5.79-2.76-9.82-6.36-12.12-3.59-2.29-8.89-3.44-15.9-3.44Z"/>
          <path class="cls-2" d="M2986.87,164c-9.04,0-18.61,2.55-28.73,7.64-9.46,4.76-19.16,11.62-29.09,20.52l-.21-24.19h-31.78l-19.06,135.03h40.89l12.13-86.85c9.94-4.93,18.31-8.69,25.08-11.26,7.32-2.77,14.14-4.16,20.46-4.16h9.76l8.67-36.74h-8.13Z"/>
          <path class="cls-2" d="M3106.59,167c-2.58,15.44-5.49,29.41-8.71,41.91-3.23,12.5-6.91,24.17-11.06,35.02-4.08,10.66-8.82,21.31-14.23,31.96h-10.29c-3.12,0-4.95-1.55-5.5-4.66l-11.55-104.22h-44.24l21.51,122.38c.73,3.85,2.57,7.06,5.52,9.63,2.94,2.57,6.53,3.85,10.76,3.85h17.63c-.05.07-.1.14-.16.21-5.35,6.89-10.83,12.36-16.45,16.41-5.63,4.04-11.48,7.31-17.56,9.79s-12.54,4.73-19.36,6.75l4.15,23.99c13.64-.74,26.18-3.49,37.61-8.27,11.43-4.78,22.12-12.13,32.08-22.06,9.96-9.93,19.54-22.79,28.76-38.6,3.32-5.51,6.68-11.86,10.09-19.02,3.41-7.17,6.82-14.93,10.23-23.3,3.41-8.36,6.68-17.14,9.82-26.33,3.13-9.19,5.95-18.47,8.43-27.85,2.49-9.37,4.47-18.56,5.95-27.57h-43.41Z"/>
        </g>
        <g>
          <path class="cls-2" d="M680,487v-100h39.82c17.59,0,27.18,11.08,27.18,28.43s-9.59,28.57-27.18,28.57h-30.86v43h-8.97ZM688.97,436h30.37c11.35,0,17.45-7.19,17.45-17.12v-6.91c0-9.78-6.1-16.98-17.45-16.98h-30.37v41Z"/>
          <path class="cls-2" d="M761,437.5c0-33.67,15.32-51.5,40.57-51.5s40.43,17.83,40.43,51.5-15.32,51.5-40.43,51.5-40.57-17.83-40.57-51.5ZM832.7,443.75v-12.49c0-23.56-12.42-37.33-31.19-37.33s-31.33,13.77-31.33,37.33v12.49c0,23.56,12.42,37.33,31.33,37.33s31.19-13.77,31.19-37.33Z"/>
          <path class="cls-2" d="M878.92,487l-24.92-99h9.11l21.21,89h.43l23.49-89h10.39l23.2,89h.43l21.92-89h8.82l-25.76,99h-10.37l-23.51-89h-.28l-23.79,89h-10.37Z"/>
          <path class="cls-2" d="M992,488v-101h58v9h-49v37h47v8h-47v40h49v7h-58Z"/>
          <path class="cls-2" d="M1083,487h-9v-99h38.9c16.89,0,26.55,10.21,26.55,27.52,0,15.18-7.67,25.25-21.86,27.09l24.42,44.39h-9.97l-23.26-43h-25.77v43ZM1113.49,436c11.4,0,17.52-7.19,17.52-17.12v-6.91c0-9.78-6.13-16.98-17.52-16.98h-30.49v41h30.49Z"/>
          <path class="cls-2" d="M1165,487v-99h57v7h-48v39h44v7h-44v46h-9Z"/>
          <path class="cls-2" d="M1251,387v61.31c0,22.05,6.32,32.01,26,32.01s26-9.96,26-32.01v-61.31h8v59.46c0,29.16-9.03,41.54-34.28,41.54s-33.72-12.38-33.72-41.54v-59.46h8Z"/>
          <path class="cls-2" d="M1338,488v-100h9v93h44v7h-53Z"/>
          <path class="cls-2" d="M1443,388h31.27c25.22,0,39.73,16.59,39.73,49.5s-14.51,49.5-39.73,49.5h-31.27v-99ZM1473.36,479c19.68,0,31.17-13.48,31.17-35.47v-13.05c0-21.99-11.49-35.47-31.17-35.47h-23.42v84h23.42Z"/>
          <path class="cls-2" d="M1532,488v-7h15v-86h-15v-7h39v7h-15v86h14v7h-38Z"/>
          <path class="cls-2" d="M1657.02,471.86h0c-3.59,10.23-13.95,17.14-29.47,17.14-24.73,0-40.55-18.01-40.55-52s15.67-52,41.12-52c17.11,0,29.04,8.64,35.08,21.46l-7.05,4.18c-4.89-11.09-14.81-17.86-28.04-17.86-19.41,0-31.92,14.12-31.92,38.03v12.24c0,24.06,12.37,38.17,32.64,38.17,15.24,0,28.18-8.07,28.18-24.49v-11.88h-23.93v-5.98h30.91v47.83h-6.98v-14.85Z"/>
          <path class="cls-2" d="M1685,488v-7h15v-86h-13v-7h37v7h-15v86h15v7h-39Z"/>
          <path class="cls-2" d="M1776,395v92h-9v-92h-33v-7h76v7h-34Z"/>
          <path class="cls-2" d="M1880.27,487l-10.49-30h-40.99l-10.49,30h-9.3l34.98-99h10.9l35.12,99h-9.73ZM1849.5,396h-.57l-18.63,53h37.84l-18.63-53Z"/>
          <path class="cls-2" d="M1908,488v-100h9v93h43v7h-52Z"/>
          <path class="cls-2" d="M2004,472.02l6.4-5.28c6.97,9.27,15.36,14.69,28.31,14.69,15.36,0,23.9-7.7,23.9-20.83,0-12.27-7.4-16.98-20.06-19.69l-8.82-1.85c-18.78-3.85-27.03-12.84-27.03-26.68,0-17.4,12.8-26.39,31.86-26.39,14.79,0,24.89,5.71,31.44,15.26l-6.4,4.71c-5.55-7.85-13.51-12.41-25.46-12.41-14.23,0-23.04,6.28-23.04,18.55s7.97,16.41,20.34,18.97l8.82,1.85c19.77,4.28,26.74,13.55,26.74,27.25,0,18.12-12.38,28.82-32.58,28.82-16.22,0-26.74-6.71-34.42-16.98Z"/>
          <path class="cls-2" d="M2088,437.5c0-33.67,15.32-51.5,40.57-51.5s40.43,17.83,40.43,51.5-15.32,51.5-40.43,51.5-40.57-17.83-40.57-51.5ZM2159.75,443.75v-12.49c0-23.56-12.42-37.33-31.19-37.33s-31.33,13.77-31.33,37.33v12.49c0,23.56,12.42,37.33,31.33,37.33s31.19-13.77,31.19-37.33Z"/>
          <path class="cls-2" d="M2192,488v-100h9v93h44v7h-53Z"/>
          <path class="cls-2" d="M2266,387v61.31c0,22.05,6.32,32.01,26,32.01s26-9.96,26-32.01v-61.31h9v59.46c0,29.16-9.03,41.54-34.28,41.54s-33.72-12.38-33.72-41.54v-59.46h7Z"/>
          <path class="cls-2" d="M2385,395v92h-9v-92h-33v-7h76v7h-34Z"/>
          <path class="cls-2" d="M2430,488v-7h15v-86h-15v-7h39v7h-15v86h13v7h-37Z"/>
          <path class="cls-2" d="M2486,437.5c0-33.67,15.32-51.5,40.57-51.5s40.43,17.83,40.43,51.5-15.32,51.5-40.43,51.5-40.57-17.83-40.57-51.5ZM2557.69,443.75v-12.49c0-23.56-12.42-37.33-31.19-37.33s-31.33,13.77-31.33,37.33v12.49c0,23.56,12.42,37.33,31.33,37.33s31.19-13.77,31.19-37.33Z"/>
          <path class="cls-2" d="M2599.43,400h-.43v87h-9v-99h6.59l56.95,88h.47v-88h9v100h-10.79l-52.78-88Z"/>
          <path class="cls-2" d="M2683,472.02l6.4-5.28c6.97,9.27,15.36,14.69,28.31,14.69,15.36,0,23.9-7.7,23.9-20.83,0-12.27-7.4-16.98-20.06-19.69l-8.82-1.85c-18.78-3.85-27.03-12.84-27.03-26.68,0-17.4,12.8-26.39,31.86-26.39,14.79,0,24.89,5.71,31.44,15.26l-6.4,4.71c-5.55-7.85-13.51-12.41-25.46-12.41-14.23,0-23.04,6.28-23.04,18.55s7.97,16.41,20.34,18.97l8.82,1.85c19.77,4.28,26.74,13.55,26.74,27.25,0,18.12-12.38,28.82-32.58,28.82-16.22,0-26.74-6.71-34.42-16.98Z"/>
        </g>
      </g>
    </g>
  </g>
</svg>