<?xml version="1.0" encoding="UTF-8"?>
<svg id="Layer_2" xmlns="http://www.w3.org/2000/svg" viewBox="0 0 62 62">
  <defs>
    <style>
      .cls-1 {
        fill: #4cbe23;
      }

      .cls-2 {
        fill: none;
        stroke: #4cbe23;
        stroke-linecap: round;
        stroke-linejoin: round;
        stroke-width: 6px;
      }
    </style>
  </defs>
  <g id="Layer_1-2">
    <g id="subject-tracks">
      <rect id="subject-tracks_box" class="cls-2" x="3" y="3" width="56" height="56" rx="8" ry="8"/>
      <g id="subject-tracks_path">
        <path id="path-1" class="cls-1" d="M37.52,18c-.47,0-.87-.34-.99-.84-.07-.29-.03-.57.11-.82s.36-.44.62-.51l2.97-.8c.53-.14,1.1.22,1.23.8.02.09.03.19.03.27,0,.51-.32.93-.77,1.06l-2.96.8c-.08.02-.16.03-.24.03h0Z"/>
        <path id="path-1-2" class="cls-1" d="M29.52,20c-.47,0-.87-.34-.99-.84-.07-.29-.03-.57.11-.82.14-.25.36-.44.62-.51l2.97-.8c.53-.14,1.1.22,1.23.8.02.09.03.19.03.27,0,.51-.32.93-.77,1.06l-2.96.8c-.08.02-.16.03-.24.03h0Z"/>
        <path id="path-1-3" class="cls-1" d="M21.52,22c-.47,0-.87-.34-.99-.84-.07-.29-.03-.57.11-.82.14-.25.36-.44.62-.51l2.97-.8c.53-.14,1.1.22,1.23.8.02.09.03.19.03.27,0,.51-.32.93-.77,1.06l-2.96.8c-.08.02-.16.03-.24.03h0Z"/>
        <path id="path-1-4" class="cls-1" d="M28.52,45c-.47,0-.87-.34-.99-.84-.07-.29-.03-.57.11-.82.14-.25.36-.44.62-.51l2.97-.8c.53-.14,1.1.22,1.23.8.02.09.03.19.03.27,0,.51-.32.93-.77,1.06l-2.96.8c-.08.02-.16.03-.24.03h0Z"/>
        <path id="path-1-5" class="cls-1" d="M21.52,47c-.47,0-.87-.34-.99-.84-.07-.29-.03-.57.11-.82.14-.25.36-.44.62-.51l2.97-.8c.53-.14,1.1.22,1.23.8.02.09.03.19.03.27,0,.51-.32.93-.77,1.06l-2.96.8c-.08.02-.16.03-.24.03h0Z"/>
        <path id="path-1-6" class="cls-1" d="M21.89,26.06c.21.38.1.86-.26,1.17-.21.18-.46.27-.73.27s-.52-.1-.69-.29l-1.98-2.08c-.35-.37-.3-1,.12-1.36.06-.05.14-.11.21-.14.42-.22.92-.14,1.22.17l1.97,2.08c.05.06.1.12.13.19h.01Z"/>
        <path id="path-1-7" class="cls-1" d="M27.89,32.06c.21.38.1.86-.26,1.17-.21.18-.46.27-.73.27s-.52-.1-.69-.29l-1.98-2.08c-.35-.37-.3-1,.12-1.36.06-.05.14-.11.21-.14.42-.22.92-.14,1.22.17l1.97,2.08c.05.06.1.12.13.19h.01Z"/>
        <path id="path-1-8" class="cls-1" d="M32.89,38.06c.21.38.1.86-.26,1.17-.21.18-.46.27-.73.27s-.52-.1-.69-.29l-1.98-2.08c-.35-.37-.3-1,.12-1.36.06-.05.14-.11.21-.14.42-.22.92-.14,1.22.17l1.97,2.08c.05.06.1.12.13.19h0Z"/>
      </g>
      <g id="subject-tracks_point">
        <circle id="subject-tracks_point-bl" class="cls-1" cx="15" cy="47.5" r="4"/>
        <circle id="subject-tracks_point-tr" class="cls-1" cx="47" cy="14.5" r="4"/>
      </g>
    </g>
  </g>
</svg>