<?xml version="1.0" encoding="UTF-8"?>
<svg id="Layer_1" xmlns="http://www.w3.org/2000/svg" viewBox="0 0 64 64">
  <defs>
    <style>
      .cls-1 {
        fill: none;
        stroke: #333;
        stroke-linecap: round;
        stroke-linejoin: round;
        stroke-width: 6px;
      }

      .cls-2 {
        fill: #333;
      }
    </style>
  </defs>
  <g id="help">
    <g id="help_x5F_qmark-curl">
      <path class="cls-2" d="M32.4,13.33c-7.92,0-13.26,4.6-13.79,11.9-.03.39.29.72.69.72h5.85c.35,0,.66-.27.69-.62.3-3.72,2.37-5.55,6.35-5.55,3.36,0,5.77,2.04,5.77,4.96,0,1.87-.73,2.87-3.75,5.24-4.3,3.33-4.88,4.28-4.92,9.45,0,.38.31.69.68.69h5.69c.36,0,.67-.3.68-.66.06-2.17.71-3.42,2.29-4.63,2.97-2.2,3.47-2.7,4.54-3.91,1.51-1.87,2.24-3.91,2.24-6.45,0-6.67-5.21-11.13-12.99-11.13h0Z"/>
    </g>
    <g id="help_x5F_qmark-dot">
      <path class="cls-2" d="M35.71,43.3h-6.09c-.35,0-.64.29-.64.64v6.09c0,.35.29.64.64.64h6.09c.35,0,.64-.29.64-.64v-6.09c0-.35-.29-.64-.64-.64h0Z"/>
    </g>
  </g>
  <circle class="cls-1" cx="32" cy="32" r="28"/>
</svg>