<?xml version="1.0" encoding="UTF-8"?>
<svg id="Layer_1" xmlns="http://www.w3.org/2000/svg" version="1.1" xmlns:xlink="http://www.w3.org/1999/xlink" viewBox="0 0 512 512">
  <!-- Generator: Adobe Illustrator 29.2.1, SVG Export Plug-In . SVG Version: 2.1.0 Build 116)  -->
  <defs>
    <style>
      .st0, .st1, .st2, .st3, .st4 {
        isolation: isolate;
        opacity: .5;
      }

      .st0, .st5 {
        fill: #144c85;
      }

      .st1 {
        fill: url(#linear-gradient1);
      }

      .st6 {
        fill: #fff;
      }

      .st2 {
        fill: url(#linear-gradient);
      }

      .st3 {
        fill: url(#linear-gradient3);
      }

      .st4 {
        fill: url(#linear-gradient2);
      }
    </style>
    <linearGradient id="linear-gradient" x1="32" y1="258" x2="480" y2="258" gradientTransform="translate(0 514) scale(1 -1)" gradientUnits="userSpaceOnUse">
      <stop offset="0" stop-color="#1a61a8"/>
      <stop offset=".2" stop-color="#15599e"/>
      <stop offset=".4" stop-color="#144c85"/>
      <stop offset=".6" stop-color="#11406f"/>
      <stop offset=".8" stop-color="#0e365d"/>
      <stop offset="1" stop-color="#0c2b4b"/>
    </linearGradient>
    <linearGradient id="linear-gradient1" x1="32" y1="258" x2="480" y2="258" gradientTransform="translate(0 514) scale(1 -1)" gradientUnits="userSpaceOnUse">
      <stop offset="0" stop-color="#1a61a8"/>
      <stop offset="0" stop-color="#15599e"/>
      <stop offset=".2" stop-color="#144c85"/>
      <stop offset=".3" stop-color="#11406f"/>
      <stop offset=".4" stop-color="#0e365d"/>
      <stop offset=".5" stop-color="#0c2b4b"/>
      <stop offset=".6" stop-color="#0e365d"/>
      <stop offset=".7" stop-color="#11406f"/>
      <stop offset=".8" stop-color="#144c85"/>
      <stop offset=".9" stop-color="#15599e"/>
      <stop offset="1" stop-color="#1a61a8"/>
    </linearGradient>
    <linearGradient id="linear-gradient2" x1="32" y1="258" x2="480" y2="258" gradientTransform="translate(0 514) scale(1 -1)" gradientUnits="userSpaceOnUse">
      <stop offset="0" stop-color="#1a61a8"/>
      <stop offset="0" stop-color="#15599e"/>
      <stop offset=".2" stop-color="#144c85"/>
      <stop offset=".3" stop-color="#11406f"/>
      <stop offset=".4" stop-color="#0e365d"/>
      <stop offset=".5" stop-color="#0c2b4b"/>
      <stop offset=".6" stop-color="#0e365d"/>
      <stop offset=".7" stop-color="#11406f"/>
      <stop offset=".8" stop-color="#144c85"/>
      <stop offset=".9" stop-color="#15599e"/>
      <stop offset="1" stop-color="#1a61a8"/>
    </linearGradient>
    <linearGradient id="linear-gradient3" x1="32" y1="258" x2="480" y2="258" gradientTransform="translate(0 514) scale(1 -1)" gradientUnits="userSpaceOnUse">
      <stop offset="0" stop-color="#1a61a8"/>
      <stop offset=".2" stop-color="#15599e"/>
      <stop offset=".4" stop-color="#144c85"/>
      <stop offset=".6" stop-color="#11406f"/>
      <stop offset=".8" stop-color="#0e365d"/>
      <stop offset="1" stop-color="#0c2b4b"/>
    </linearGradient>
  </defs>
  <g id="circles">
    <circle class="st5" cx="256" cy="256" r="224"/>
    <circle class="st2" cx="256" cy="256" r="224"/>
    <circle class="st1" cx="256" cy="256" r="224"/>
    <circle class="st4" cx="256" cy="256" r="224"/>
    <circle class="st3" cx="256" cy="256" r="224"/>
    <circle class="st0" cx="256" cy="256" r="224"/>
  </g>
  <g id="shark">
    <path class="st6" d="M445,212.5c.5-.5,1.9-.3,3.2-.3s1.9,0,2.2-.4c-1.6-9.2,11.7-21.1,5.3-20-7.9,1.4-33.3,23-39.6,29.4-6.4,6.4-13.1,14.3-19.5,21.1-3.5,3.7-6.1,6.9-6.6,6.9-16.4,0-13.4-1.8-39.1-7.8-.1-.4-.5-.4-.7-.6,0-.5-1.8-5.1-2.7-5.2-.8,0-5.1,1.5-8.5,2.2s-8.3-.3-8.7,0c-4.8-.6-29.7-7.1-33.2-7.7-3.9-.9-45.2-7.9-47-7.8-.3-1,2.2.2,2.3-.6,0,0-1.2-.8-3.9-2.3-3.3-1.9-9.4-13-9.4-26.2s-1.4-16.3-1.4-16.3c-2.6-4.8-19.6,15.7-22.4,19.6-3.9,5.8-7.2,9.8-10.4,13.6-2.1,2.7-4.9,4.9-7.7,6.4-4.7.7-10.4,1.5-14.3,2.1-11.7,1.8-46.2,7.1-65.9,11.9.2,0-26.9,8.4-27.6,8.7,0,0-6,2.3-8.1,3.2,0,0-13.6,3.5-16.6,4.9-.8.2-5.6,2.3-7,3.1-.5.3-1.3.6-1.9.9-.4.3-1.1.4-1.1,1s-1.3,1.9,6.2,7.7c0,0,9.9,7.5,17.8,9.1.9.3,2.3,1.2,3,.6.7.1,13.5-7,18.7-4.3,3.6,2.7-13.9,7.3-13.6,8.4,0,.2,0,.6,0,.7l3.1,2.7c.9.5,3.6,2.4,7.1,3.2,0,0,17.9,3.5,25.9,4.2,10,1.5,19.7,1.5,29.8,1.4,1.9,0,8.8,0,11.7-.1,1.7,0,3.9.4,5.2,1.2,0,.1,4.7,13.3,20.6,31.2,8.2,9.2,26.3,20.2,27,16.7.7-3.9-1.7-7.7-4.3-14.6-8.7-23.3-3.7-32.3-3.4-32.3,12.8-.6,24-.5,36.4-2.6,12.6-1.6,29.6-6.6,29.8-6.6.3,0,13.1-4.4,13.1-4.4,1.9-.3,3.5.5,5.3,1.1.2.2,8.3,3.6,12.6,5.6.8.3,1.8,1,2.5,1.4.2.2.6.5.8.5.4,0,.6-.5,1.1-.9,3.1-2.7,6.2-10.1,8.2-11.9,1.1-.9,3.3-1.4,3.3-1.4-1.1-.1-2.4-.2-3.8.2.6-.3,1-.4,1.3-.4,4.9-.7,24.7-4.5,25.7-5.1,1.6,0,5,1.1,6.8,1.9,1,.6,2,1.4,2.5.7.2-.3,3.1-3.7,4.1-4.6h.2c.3,0,23.4-.7,24.5-.5.1,0,3.7-.3,3.8-.3.1.3,7-.1,13.2,9.6,12.7,16.2,22.7,25.8,38.7,32.2,2.4-.1-4.5-9-5.5-10.3-9.7-12.9-6.5-24.1-11.3-38.2,1.2-4.3,3.1-8.4,4.7-12.3,7.6-17.5,14.9-26.9,17.2-29.3h.3Z"/>
  </g>
</svg>