<?xml version="1.0" encoding="UTF-8"?>
<svg id="Layer_2" data-name="Layer 2" xmlns="http://www.w3.org/2000/svg" viewBox="0 0 491.6 194.63">
  <defs>
    <style>
      .cls-1 {
        fill: #fff;
      }
    </style>
  </defs>
  <g id="Layer_1-2" data-name="Layer 1">
    <path class="cls-1" d="M476.4,44.33c.61-.61,2.32-.37,3.91-.37,1.22,0,2.32,0,2.68-.49-1.95-11.23,14.28-25.75,6.47-24.41-9.64,1.71-40.64,28.07-48.33,35.88-7.81,7.81-15.99,17.45-23.8,25.75-4.27,4.52-7.44,8.42-8.05,8.42-20.01,0-16.35-2.2-47.72-9.52-.12-.49-.61-.49-.85-.73,0-.61-2.2-6.22-3.29-6.35-.98,0-6.22,1.83-10.37,2.68-4.15.85-10.13-.37-10.62,0-5.86-.73-36.24-8.66-40.52-9.4-4.76-1.1-55.16-9.64-57.36-9.52-.37-1.22,2.68.24,2.81-.73.08,0-1.51-.94-4.76-2.81-4.03-2.32-11.47-15.86-11.47-31.97,0-4.64-1.71-19.89-1.71-19.89-3.17-5.86-23.92,19.16-27.34,23.92-4.76,7.08-8.79,11.96-12.69,16.6-2.56,3.29-5.98,5.98-9.4,7.81-5.74.85-12.69,1.83-17.45,2.56-14.28,2.2-56.38,8.66-80.42,14.52.24,0-32.83,10.25-33.68,10.62-.12,0-7.32,2.81-9.88,3.91-.12,0-16.6,4.27-20.26,5.98-.98.24-6.83,2.81-8.54,3.78-.61.37-1.59.73-2.32,1.1-.49.37-1.34.49-1.34,1.22,0,.49-1.59,2.32,7.57,9.4.12,0,12.08,9.15,21.72,11.11,1.1.37,2.81,1.46,3.66.73.85.12,16.47-8.54,22.82-5.25,4.39,3.29-16.96,8.91-16.6,10.25-.12.24,0,.73,0,.85l3.78,3.29c1.1.61,4.39,2.93,8.66,3.91,0,0,21.84,4.27,31.61,5.13,12.2,1.83,24.04,1.83,36.37,1.71,2.32,0,10.74,0,14.28-.12,2.07,0,4.76.49,6.35,1.46,0,.12,5.74,16.23,25.14,38.07,10.01,11.23,32.09,24.65,32.95,20.38.85-4.76-2.07-9.4-5.25-17.82-10.62-28.43-4.52-39.42-4.15-39.42,15.62-.73,29.29-.61,44.42-3.17,15.38-1.95,36.12-8.05,36.37-8.05.37,0,15.99-5.37,15.99-5.37,2.32-.37,4.27.61,6.47,1.34.24.24,10.13,4.39,15.38,6.83.98.37,2.2,1.22,3.05,1.71.24.24.73.61.98.61.49,0,.73-.61,1.34-1.1,3.78-3.29,7.57-12.33,10.01-14.52,1.34-1.1,4.03-1.71,4.03-1.71-1.34-.12-2.93-.24-4.64.24.73-.37,1.22-.49,1.59-.49,5.98-.85,30.14-5.49,31.36-6.22,1.95,0,6.1,1.34,8.3,2.32,1.22.73,2.44,1.71,3.05.85.24-.37,3.78-4.52,5-5.61h.24c.37,0,28.56-.85,29.9-.61.12,0,4.52-.37,4.64-.37.12.37,8.54-.12,16.11,11.72,15.5,19.77,27.7,31.48,47.23,39.29,2.93-.12-5.49-10.98-6.71-12.57-11.84-15.74-7.93-29.41-13.79-46.62,1.46-5.25,3.78-10.25,5.74-15.01,9.27-21.36,18.18-32.83,20.99-35.76h.37Z"/>
  </g>
</svg>