<?xml version="1.0" encoding="UTF-8"?>
<svg id="Layer_2" data-name="Layer 2" xmlns="http://www.w3.org/2000/svg" viewBox="0 0 3500 526.22">
  <defs>
    <style>
      .cls-1 {
        fill: #131415;
      }
    </style>
  </defs>
  <g id="Layer_1-2" data-name="Layer 1">
    <g>
      <g>
        <path class="cls-1" d="M231.03,4.3l-6.35,47.58H.11L6.85,4.3h224.18ZM148.83,4.3l-38,270.09h-59.93L88.9,4.3h59.93Z"/>
        <path class="cls-1" d="M318.05.1l-9.41,68.18c-1.57,12.28-3.99,24.29-7.25,36.05-3.27,11.76-6.21,21.03-8.82,27.82l5.88,4.7-18.82,137.54h-58.03L260.01.1h58.03ZM381.29,75.53c18.06,0,31.46,4.71,40.23,14.12,8.76,9.41,11.84,23.01,9.22,40.79l-20.41,143.95h-58.09l18.45-128.26c1.04-8.37.52-14.05-1.57-17.06-2.1-3-6.28-4.51-12.56-4.51-9.42,0-18.98,2.68-28.65,8.04-9.68,5.36-21.46,13.53-35.32,24.51l-6.67-29.42c17.53-17.78,34.21-30.92,50.04-39.42,15.83-8.49,30.94-12.75,45.33-12.75Z"/>
        <path class="cls-1" d="M574.78,75.89c23.81,0,42.19,2.55,55.15,7.65,12.95,5.1,21.65,12.69,26.1,22.75,4.45,10.07,5.49,22.42,3.14,37.07-1.83,12.03-5.83,21.51-11.97,28.44-6.15,6.93-14.59,12.1-25.32,15.49-10.73,3.4-24.34,5.75-40.82,7.06l-98.91,8.24,4.32-32.16,83.21-8.24c7.06-.78,12.88-1.89,17.47-3.33,4.57-1.43,8.18-3.79,10.79-7.06,2.61-3.27,4.32-7.91,5.1-13.92,1.04-6.28.65-10.98-1.18-14.12-1.83-3.14-5.1-5.16-9.81-6.08-4.71-.91-10.99-1.24-18.84-.98-8.11,0-14.91.78-20.41,2.35-5.49,1.57-10.08,4.38-13.74,8.43-3.67,4.06-6.67,9.81-9.03,17.26-2.36,7.45-4.58,17.06-6.67,28.83-2.62,17-3.01,29.81-1.18,38.44,1.83,8.63,5.89,14.38,12.17,17.26,6.28,2.88,15.04,4.31,26.3,4.31,6.28,0,13.87-.2,22.76-.59,8.89-.39,17.99-.91,27.28-1.57,9.28-.65,17.72-1.37,25.32-2.16l3.93,36.08c-7.85,3.4-16.75,6.15-26.69,8.24-9.95,2.09-20.02,3.59-30.22,4.51-10.2.91-19.76,1.37-28.65,1.37-25.9,0-45.99-3.92-60.25-11.77-14.26-7.84-23.75-19.54-28.46-35.1-4.71-15.55-5.76-34.71-3.14-57.46,2.36-20.13,6.34-36.61,11.97-49.42,5.62-12.81,12.95-22.81,21.98-30.01,9.03-7.19,20.08-12.29,33.17-15.3,13.08-3,28.12-4.51,45.14-4.51Z"/>
        <path class="cls-1" d="M904.08,0c28.52,0,51.22,4.25,68.1,12.75,16.88,8.5,28.19,23.01,33.95,43.54,5.75,20.53,6.02,48.97.79,85.31-3.92,27.98-9.16,50.93-15.7,68.84-6.54,17.91-14.91,31.77-25.12,41.58-10.2,9.81-23.03,16.67-38.46,20.59-15.44,3.92-33.89,5.88-55.34,5.88-18.84,0-37.16-.39-54.95-1.18-17.8-.78-34.8-1.7-51.02-2.75l29.44-44.32c9.68.53,21.59.98,35.72,1.37,14.13.39,27.47.59,40.03.59,10.99,0,20.47-1.24,28.46-3.73,7.98-2.48,14.78-7.12,20.41-13.92,5.62-6.8,10.33-16.41,14.13-28.83,3.79-12.42,7-28.69,9.62-48.83,2.61-18.56,3.92-33.79,3.92-45.69s-1.51-21.11-4.51-27.65c-3.01-6.53-7.92-11.11-14.72-13.73-6.81-2.61-15.7-3.92-26.69-3.92-8.11,0-16.62.07-25.51.2-8.9.13-17.6.2-26.1.2h-23.35l-22.76-42.36c9.42-.78,19.75-1.5,31.01-2.16,11.25-.65,22.76-1.11,34.54-1.37,11.78-.26,23.16-.39,34.15-.39ZM864.34,4.3l-38,270.09h-59.93L804.41,4.3h59.93Z"/>
        <path class="cls-1" d="M1103.2,81.27l.39,46.13,5.09,5.47-19.56,141.52h-57.9l26.99-193.12h44.99ZM1196.76,75.67l-12.43,53.18h-13.98c-9.07,0-18.84,2.01-29.33,6.02-10.49,4.01-23.63,10.03-39.43,18.05l-2.33-33.77c15.28-14.23,30.16-25.04,44.67-32.41,14.5-7.37,28.22-11.06,41.17-11.06h11.65Z"/>
        <path class="cls-1" d="M1313.45,75.89c23.81,0,42.19,2.55,55.15,7.65,12.95,5.1,21.65,12.69,26.1,22.75,4.45,10.07,5.49,22.42,3.14,37.07-1.83,12.03-5.83,21.51-11.97,28.44-6.15,6.93-14.59,12.1-25.32,15.49-10.73,3.4-24.34,5.75-40.82,7.06l-98.91,8.24,4.32-32.16,83.21-8.24c7.06-.78,12.88-1.89,17.47-3.33,4.57-1.43,8.18-3.79,10.79-7.06,2.61-3.27,4.32-7.91,5.1-13.92,1.04-6.28.65-10.98-1.18-14.12-1.83-3.14-5.1-5.16-9.81-6.08-4.71-.91-10.99-1.24-18.84-.98-8.11,0-14.91.78-20.41,2.35-5.49,1.57-10.08,4.38-13.74,8.43-3.67,4.06-6.67,9.81-9.03,17.26-2.36,7.45-4.58,17.06-6.67,28.83-2.62,17-3.01,29.81-1.18,38.44,1.83,8.63,5.89,14.38,12.17,17.26,6.28,2.88,15.04,4.31,26.3,4.31,6.28,0,13.87-.2,22.76-.59,8.89-.39,17.99-.91,27.28-1.57,9.28-.65,17.72-1.37,25.32-2.16l3.93,36.08c-7.85,3.4-16.75,6.15-26.69,8.24-9.95,2.09-20.02,3.59-30.22,4.51-10.2.91-19.76,1.37-28.65,1.37-25.9,0-45.99-3.92-60.25-11.77-14.26-7.84-23.75-19.54-28.46-35.1-4.71-15.55-5.76-34.71-3.14-57.46,2.36-20.13,6.34-36.61,11.97-49.42,5.62-12.81,12.95-22.81,21.98-30.01,9.03-7.19,20.08-12.29,33.17-15.3,13.08-3,28.12-4.51,45.14-4.51Z"/>
        <path class="cls-1" d="M1536.38,75.89c6.8,0,14.45.33,22.96.98,8.5.66,17.13,1.51,25.9,2.55,8.76,1.05,17.01,2.22,24.73,3.53,7.71,1.31,14.06,2.62,19.04,3.92l-39.64,31.38c-10.47-.52-20.02-.85-28.65-.98-8.64-.13-16.75-.2-24.33-.2-8.64,0-15.96.66-21.98,1.96-6.02,1.31-10.99,3.86-14.91,7.65-3.92,3.79-7.2,9.48-9.81,17.06-2.62,7.59-4.84,17.78-6.67,30.59-2.36,16.22-3.6,28.57-3.73,37.07-.13,8.5,1.37,14.32,4.51,17.45s8.11,4.58,14.91,4.31c7.06-.26,14.46-2.61,22.18-7.06,7.71-4.44,15.37-10.52,22.96-18.24,7.59-7.71,14.91-16.41,21.98-26.08l10.2,18.83c-5.24,15.43-12.63,28.96-22.18,40.6-9.56,11.64-20.74,20.73-33.56,27.26-12.82,6.53-27.08,10.2-42.78,10.98-17.01.78-30.03-2.62-39.05-10.2-9.03-7.58-14.59-19.35-16.68-35.3-2.1-15.95-1.31-35.95,2.36-60.01,3.4-22.22,8.17-39.94,14.33-53.15,6.15-13.2,13.93-23.01,23.35-29.42,9.42-6.4,20.34-10.59,32.77-12.55,12.42-1.96,26.36-2.94,41.8-2.94ZM1571.71,82.99l57.3,3.53-26.3,187.88h-45.14l.79-43.93-7.06-4.71,20.41-142.77Z"/>
        <path class="cls-1" d="M1722,81.27l.39,44.57,5.09,5.47-19.95,143.08h-57.51l26.99-193.12h44.99ZM1798.96,75.53c18.05,0,31.2,4.84,39.45,14.51,8.24,9.68,11.19,23.14,8.83,40.4l-20.41,143.95h-55.73l18.05-128.26c1.04-7.84.39-13.4-1.96-16.67-2.36-3.27-6.81-4.9-13.34-4.9-4.71,0-9.68,1.05-14.91,3.14-5.24,2.1-11.12,5.43-17.66,10-6.54,4.58-14.52,10.92-23.94,19.02l-7.06-29.02c16.22-18.04,31.26-31.24,45.14-39.61,13.87-8.37,28.39-12.55,43.57-12.55ZM1919.85,75.53c18.31,0,31.66,4.9,40.03,14.71,8.37,9.81,11.25,23.21,8.64,40.2l-20.02,143.95h-57.7l18.05-128.26c1.04-8.37.2-14.05-2.55-17.06-2.75-3-7-4.51-12.76-4.51-4.45,0-9.22.98-14.33,2.94-5.1,1.96-10.86,5.23-17.27,9.81-6.41,4.58-14.07,10.92-22.96,19.02l-7.46-28.63c16.22-18.3,31.2-31.57,44.94-39.81,13.74-8.24,28.19-12.35,43.37-12.35Z"/>
        <path class="cls-1" d="M2174.99,3.12c21.41,0,42.96.2,64.63.59,21.67.39,41.39,1.76,59.15,4.11l-7.05,42.67h-95.58c-8.36,0-14.49,1.5-18.41,4.5-3.92,3-6.4,8.55-7.44,16.64l-28.59,202.77h-59.93l30.16-217.26c2.61-16.96,9.53-30.2,20.76-39.73,11.23-9.52,25.33-14.29,42.31-14.29ZM2109.45,117.65h158.93l-5.55,41.98h-159.33l5.95-41.98Z"/>
        <path class="cls-1" d="M2409.67,75.89c6.8,0,14.46.33,22.96.98,8.5.66,17.14,1.51,25.91,2.55,8.76,1.05,17.01,2.22,24.73,3.53,7.72,1.31,14.06,2.62,19.04,3.92l-39.64,31.38c-10.47-.52-20.02-.85-28.65-.98-8.64-.13-16.75-.2-24.34-.2-8.64,0-15.96.66-21.98,1.96-6.02,1.31-10.99,3.86-14.91,7.65-3.93,3.79-7.2,9.48-9.81,17.06-2.62,7.59-4.85,17.78-6.67,30.59-2.35,16.22-3.6,28.57-3.73,37.07-.14,8.5,1.37,14.32,4.51,17.45,3.14,3.14,8.11,4.58,14.91,4.31,7.06-.26,14.46-2.61,22.18-7.06,7.72-4.44,15.37-10.52,22.96-18.24,7.59-7.71,14.91-16.41,21.98-26.08l10.21,18.83c-5.24,15.43-12.63,28.96-22.18,40.6-9.56,11.64-20.74,20.73-33.56,27.26-12.82,6.53-27.08,10.2-42.78,10.98-17.01.78-30.03-2.62-39.05-10.2-9.03-7.58-14.59-19.35-16.68-35.3-2.1-15.95-1.31-35.95,2.35-60.01,3.4-22.22,8.18-39.94,14.33-53.15,6.15-13.2,13.93-23.01,23.35-29.42,9.42-6.4,20.34-10.59,32.77-12.55,12.42-1.96,26.36-2.94,41.8-2.94ZM2444.99,82.99l57.3,3.53-26.3,187.88h-45.14l.79-43.93-7.06-4.71,20.41-142.77Z"/>
        <path class="cls-1" d="M2634.95,75.89c12.3,0,25.38.98,39.25,2.94,13.87,1.96,26.03,5.17,36.5,9.61l-8.24,35.69c-11.52-.52-22.51-.85-32.97-.98-10.47-.13-19.37-.2-26.69-.2-11.52,0-20.94,1.57-28.26,4.71-7.33,3.14-12.95,8.7-16.88,16.67-3.92,7.98-6.81,19.16-8.64,33.54-2.1,15.17-2.35,26.67-.78,34.52,1.57,7.84,5.43,13.21,11.58,16.08,6.15,2.88,14.85,4.31,26.1,4.31,4.71,0,10.4-.13,17.07-.39,6.67-.26,13.93-.59,21.78-.98,7.85-.39,15.44-1.11,22.76-2.16l3.92,37.65c-11.25,4.45-23.62,7.65-37.09,9.61-13.48,1.96-26.36,2.94-38.66,2.94-22.76,0-41.21-3.47-55.34-10.39-14.13-6.93-23.88-18.04-29.24-33.34-5.37-15.3-6.35-35.36-2.94-60.21,3.66-24.05,9.35-43.34,17.07-57.85,7.72-14.51,18.84-25.1,33.36-31.77,14.52-6.67,33.29-10,56.32-10Z"/>
        <path class="cls-1" d="M2878.96,81.27l-5.46,37.78h-145.01l4.68-35.84,37.42-1.95h108.37ZM2833.02,28.09l-26.58,185.96c-1.04,7.03-.39,11.85,1.96,14.45,2.35,2.61,7.29,3.91,14.86,3.91h26.19l2.74,39.46c-4.95,1.56-10.88,2.93-17.79,4.1-6.91,1.17-13.62,2.01-20.13,2.54-6.52.52-11.86.78-16.03.78-17.98,0-31.61-4.88-40.85-14.65-9.26-9.77-12.58-22.98-9.97-39.65l28.54-196.9h57.08Z"/>
        <path class="cls-1" d="M2999.97,75.89c23.81,0,42.91,3.47,57.3,10.39,14.39,6.93,24.14,17.98,29.24,33.14,5.1,15.17,5.82,35.56,2.16,61.19-3.4,24.32-9.22,43.73-17.47,58.25-8.24,14.51-19.82,24.91-34.74,31.18-14.91,6.28-34.28,9.41-58.09,9.41s-42.59-3.4-57.11-10.2c-14.52-6.8-24.47-17.78-29.83-32.95-5.37-15.16-6.35-35.3-2.94-60.4,3.66-24.57,9.55-44.13,17.66-58.64,8.11-14.51,19.82-25.04,35.13-31.57,15.31-6.53,34.86-9.81,58.68-9.81ZM2999.18,118.25c-10.47,0-18.91,1.7-25.32,5.1-6.41,3.4-11.52,9.55-15.31,18.43-3.8,8.89-6.87,21.84-9.22,38.83-2.1,14.9-2.69,26.54-1.77,34.91.91,8.37,3.99,14.12,9.22,17.26,5.23,3.14,12.95,4.71,23.16,4.71s18.84-1.76,25.12-5.29c6.28-3.53,11.25-9.74,14.91-18.63,3.66-8.89,6.67-21.44,9.03-37.65,2.09-15.43,2.68-27.26,1.77-35.5-.92-8.24-3.92-13.99-9.03-17.26-5.1-3.27-12.63-4.9-22.57-4.9Z"/>
        <path class="cls-1" d="M3186.4,81.27l.39,46.13,5.09,5.47-19.56,141.52h-57.9l26.99-193.12h44.99ZM3281.27,75.67l-12.43,53.18h-13.98c-9.07,0-18.84,2.01-29.33,6.02-10.49,4.01-23.63,10.03-39.43,18.05l-2.33-33.77c15.28-14.23,30.16-25.04,44.67-32.41,14.5-7.37,28.22-11.06,41.18-11.06h11.65Z"/>
        <path class="cls-1" d="M3351.27,81.27l16.44,148.69c.78,4.44,3.39,6.65,7.83,6.65h21.96l-15.59,37.78h-39.78c-6,0-11.09-1.82-15.26-5.47-4.18-3.65-6.79-8.21-7.82-13.68l-30.51-173.97h62.74ZM3500,81.27c-2.1,12.81-4.91,25.89-8.44,39.22-3.53,13.34-7.52,26.54-11.97,39.61-4.45,13.08-9.1,25.56-13.93,37.46-4.84,11.9-9.68,22.94-14.52,33.14-4.84,10.2-9.62,19.22-14.33,27.06-13.09,22.49-26.69,40.79-40.82,54.91-14.13,14.12-29.31,24.58-45.53,31.38-16.23,6.8-34.02,10.72-53.38,11.77l-5.89-34.12c9.68-2.88,18.84-6.08,27.47-9.61,8.64-3.53,16.94-8.18,24.92-13.92,7.98-5.75,15.76-13.53,23.35-23.34,7.59-9.81,15.17-22.42,22.76-37.85,7.85-15.43,14.72-30.85,20.61-46.28,5.89-15.43,11.12-32.03,15.7-49.81,4.57-17.78,8.7-37.65,12.36-59.62h61.62Z"/>
      </g>
      <g>
        <path class="cls-1" d="M0,523.49v-111.96h44.15c19.5,0,30.13,12.24,30.13,31.41s-10.63,31.57-30.13,31.57H9.8v48.98H0ZM9.8,466.11h34.67c12.96,0,19.93-8.1,19.93-19.28v-7.78c0-11.02-6.97-19.12-19.93-19.12H9.8v46.18Z"/>
        <path class="cls-1" d="M90.98,468.11c0-37.99,17.39-58.1,46.05-58.1s45.89,20.12,45.89,58.1-17.39,58.11-45.89,58.11-46.05-20.12-46.05-58.11ZM172.2,475.2v-14.18c0-26.74-14.18-42.37-35.62-42.37s-35.78,15.63-35.78,42.37v14.18c0,26.74,14.18,42.37,35.78,42.37s35.62-15.63,35.62-42.37Z"/>
        <path class="cls-1" d="M224.89,523.49l-28.24-111.96h10.07l24.07,100.76h.48l26.65-100.76h11.79l26.33,100.76h.48l24.88-100.76h9.75l-29.2,111.96h-11.54l-26.68-100.76h-.32l-27,100.76h-11.54Z"/>
        <path class="cls-1" d="M351.4,524.89v-113.35h65.8v9.8h-56v41.98h53.2v8.4h-53.2v44.78h56v8.4h-65.8Z"/>
        <path class="cls-1" d="M453.6,523.49h-9.8v-111.96h43.97c19.09,0,30.01,11.55,30.01,31.12,0,17.16-8.66,28.55-24.71,30.64l27.6,50.2h-11.24l-26.48-48.98h-29.34v48.98ZM488.27,466.11c12.96,0,19.93-8.1,19.93-19.28v-7.78c0-11.02-6.97-19.12-19.93-19.12h-34.67v46.18h34.67Z"/>
        <path class="cls-1" d="M546,523.49v-111.96h64.4v8.4h-54.6v43.38h50.4v8.4h-50.4v51.78h-9.8Z"/>
        <path class="cls-1" d="M642.6,411.54v69.37c0,24.95,7.15,36.22,29.4,36.22s29.4-11.27,29.4-36.22v-69.37h9.8v67.28c0,33-10.22,47-38.82,47s-38.18-14-38.18-47v-67.28h8.4Z"/>
        <path class="cls-1" d="M742,524.89v-113.35h9.8v104.96h49v8.4h-58.8Z"/>
        <path class="cls-1" d="M859.6,411.54h35.62c28.72,0,45.25,18.77,45.25,55.98s-16.53,55.98-45.25,55.98h-35.62v-111.96ZM894.42,515.09c22.21,0,35.18-15.27,35.18-40.19v-14.79c0-24.92-12.97-40.19-35.18-40.19h-26.42v95.16h26.42Z"/>
        <path class="cls-1" d="M960.4,524.89v-8.4h16.8v-96.56h-16.8v-8.4h43.4v8.4h-16.8v96.56h15.4v8.4h-42Z"/>
        <path class="cls-1" d="M1101.8,506.7h0c-4.05,11.57-15.73,19.39-33.25,19.39-27.89,0-45.73-20.36-45.73-58.81s17.68-58.81,46.38-58.81c19.3,0,32.76,9.77,39.57,24.27l-7.95,4.72c-5.51-12.54-16.7-20.2-31.62-20.2-21.89,0-36,15.96-36,43.01v13.85c0,27.2,13.95,43.17,36.81,43.17,17.19,0,31.79-9.12,31.79-27.69v-13.68h-26.6v-7h35v54.58h-8.4v-16.79Z"/>
        <path class="cls-1" d="M1132.6,524.89v-8.4h16.8v-96.56h-15.4v-8.4h42v8.4h-16.8v96.56h16.8v8.4h-43.4Z"/>
        <path class="cls-1" d="M1236.2,419.93v103.56h-9.8v-103.56h-37.8v-8.4h85.4v8.4h-37.8Z"/>
        <path class="cls-1" d="M1352.62,523.49l-11.77-33.59h-45.99l-11.77,33.59h-10.89l39.63-111.96h12.36l39.79,111.96h-11.37ZM1318.1,421.33h-.65l-21.2,60.18h43.05l-21.2-60.18Z"/>
        <path class="cls-1" d="M1384.6,524.89v-113.35h9.8v104.96h49v8.4h-58.8Z"/>
        <path class="cls-1" d="M1492.16,507.06l7.25-5.96c7.89,10.46,17.39,16.58,32.04,16.58,17.39,0,27.05-8.69,27.05-23.5,0-13.84-8.37-19.15-22.7-22.21l-9.98-2.09c-21.25-4.35-30.59-14.49-30.59-30.1,0-19.64,14.49-29.78,36.07-29.78,16.75,0,28.18,6.44,35.59,17.22l-7.25,5.31c-6.28-8.85-15.3-14-28.82-14-16.1,0-26.09,7.08-26.09,20.92s9.02,18.51,23.03,21.41l9.98,2.09c22.38,4.83,30.27,15.29,30.27,30.74,0,20.44-14.01,32.51-36.87,32.51-18.36,0-30.27-7.57-38.97-19.15Z"/>
        <path class="cls-1" d="M1587,468.11c0-37.99,17.39-58.1,46.05-58.1s45.89,20.12,45.89,58.1-17.39,58.11-45.89,58.11-46.05-20.12-46.05-58.11ZM1668.8,475.2v-14.18c0-26.74-14.18-42.37-35.62-42.37s-35.78,15.63-35.78,42.37v14.18c0,26.74,14.18,42.37,35.78,42.37s35.62-15.63,35.62-42.37Z"/>
        <path class="cls-1" d="M1705.2,524.89v-113.35h9.8v104.96h49v8.4h-58.8Z"/>
        <path class="cls-1" d="M1787.8,411.54v69.37c0,24.95,7.15,36.22,29.4,36.22s29.4-11.27,29.4-36.22v-69.37h9.8v67.28c0,33-10.22,47-38.82,47s-38.18-14-38.18-47v-67.28h8.4Z"/>
        <path class="cls-1" d="M1922.2,419.93v103.56h-9.8v-103.56h-37.8v-8.4h85.4v8.4h-37.8Z"/>
        <path class="cls-1" d="M1972.6,524.89v-8.4h16.8v-96.56h-16.8v-8.4h43.4v8.4h-16.8v96.56h15.4v8.4h-42Z"/>
        <path class="cls-1" d="M2035.44,468.11c0-37.99,17.39-58.1,46.05-58.1s45.89,20.12,45.89,58.1-17.39,58.11-45.89,58.11-46.05-20.12-46.05-58.11ZM2116.8,475.2v-14.18c0-26.74-14.18-42.37-35.62-42.37s-35.78,15.63-35.78,42.37v14.18c0,26.74,14.18,42.37,35.78,42.37s35.62-15.63,35.62-42.37Z"/>
        <path class="cls-1" d="M2163.48,425.53h-.48v97.96h-9.8v-111.96h8.88l62.01,99.36h.51v-99.36h9.8v113.35h-12.03l-58.88-99.36Z"/>
        <path class="cls-1" d="M2257.16,507.06l7.25-5.96c7.89,10.46,17.39,16.58,32.04,16.58,17.39,0,27.05-8.69,27.05-23.5,0-13.84-8.37-19.15-22.7-22.21l-9.98-2.09c-21.25-4.35-30.59-14.49-30.59-30.1,0-19.64,14.49-29.78,36.07-29.78,16.75,0,28.18,6.44,35.59,17.22l-7.25,5.31c-6.28-8.85-15.3-14-28.82-14-16.1,0-26.09,7.08-26.09,20.92s9.02,18.51,23.03,21.41l9.98,2.09c22.38,4.83,30.27,15.29,30.27,30.74,0,20.44-14.01,32.51-36.87,32.51-18.36,0-30.27-7.57-38.97-19.15Z"/>
      </g>
    </g>
  </g>
</svg>