<?xml version="1.0" encoding="UTF-8"?>
<svg id="Layer_2" data-name="Layer 2" xmlns="http://www.w3.org/2000/svg" viewBox="0 0 62 62">
  <defs>
    <style>
      .cls-1 {
        fill: none;
        stroke: #333;
        stroke-linecap: round;
        stroke-linejoin: round;
        stroke-width: 6px;
      }

      .cls-2 {
        fill: #333;
      }
    </style>
  </defs>
  <g id="Layer_1-2" data-name="Layer 1">
    <g id="tip-ctrl">
      <rect id="tip-ctrl_box" class="cls-1" x="3" y="3" width="56" height="56" rx="8" ry="8"/>
      <g id="tip-ctrl_text">
        <path class="cls-2" d="M17.59,18.21c-.27-1.26-1.17-2.02-2.4-2.02-1.72,0-2.85,1.49-2.85,3.74s1.13,3.87,2.81,3.87c1.4,0,2.36-1,2.56-2.67h1.29c-.11.95-.31,1.55-.77,2.22-.74,1.09-1.77,1.64-3.11,1.64s-2.39-.55-3.14-1.64c-.64-.93-.98-2.09-.98-3.4,0-2.91,1.73-4.96,4.19-4.96,1.91,0,3.26,1.15,3.65,3.08l-1.25.13Z"/>
        <path class="cls-2" d="M23.5,18.65h-1.07v4.22c0,.39.16.61.44.61.16,0,.32-.04.63-.18v1.04c-.49.13-.68.15-.95.15-.85,0-1.25-.52-1.25-1.63v-4.22h-.8v-1.02h.8v-2.13h1.13v2.13h1.07v1.02Z"/>
        <path class="cls-2" d="M26.33,17.68v1.07c.29-.4.41-.55.6-.72.33-.32.86-.54,1.3-.54.27,0,.53.06.77.17v1.17c-.29-.06-.44-.07-.63-.07-1.12,0-1.98.93-1.98,2.14v3.58h-1.39v-6.82h1.33Z"/>
        <path class="cls-2" d="M31.5,24.5h-1v-9h1v9Z"/>
      </g>
    </g>
  </g>
</svg>